<svg viewBox="0 0 1100 160" version="1.1" xmlns:xlink="http://www.w3.org/1999/xlink" xmlns="http://www.w3.org/2000/svg" id="Layer_1">
  
  <defs>
    <style>
      .st0, .st1 {
        fill: none;
      }

      .st2 {
        fill: #387b59;
      }

      .st3 {
        fill: #66aa83;
      }

      .st4 {
        opacity: .3;
      }

      .st4, .st5, .st6 {
        isolation: isolate;
      }

      .st4, .st7 {
        fill: #221f1f;
      }

      .st4, .st6 {
        mix-blend-mode: multiply;
      }

      .st8 {
        fill: #e9f3ed;
      }

      .st1 {
        stroke: #fff;
        stroke-miterlimit: 10;
      }

      .st9 {
        fill: #95cfae;
      }

      .st10 {
        fill: url(#linear-gradient);
      }

      .st11 {
        fill: #559a76;
      }

      .st12 {
        clip-path: url(#clippath-1);
      }

      .st13 {
        clip-path: url(#clippath-3);
      }

      .st14 {
        clip-path: url(#clippath-2);
      }

      .st15 {
        fill: #b9dfc7;
      }

      .st16 {
        fill: #fff;
      }

      .st17 {
        fill: #4a805e;
      }

      .st18 {
        fill: #f15d2f;
      }

      .st19 {
        fill: #68af85;
      }

      .st20 {
        fill: #1d1c1c;
      }

      .st6 {
        opacity: .2;
      }

      .st21 {
        fill: #221e1e;
      }

      .st22 {
        fill: #3a3537;
      }

      .st23 {
        clip-path: url(#clippath);
      }

      .st24 {
        mix-blend-mode: screen;
        opacity: .1;
      }
    </style>
    <clipPath id="clippath">
      <rect height="160" width="1100" class="st0"></rect>
    </clipPath>
    <clipPath id="clippath-1">
      <rect height="160" width="1100" class="st0"></rect>
    </clipPath>
    <clipPath id="clippath-2">
      <rect height="186.1" width="1119.9" y="-12.5" x="-13.8" class="st0"></rect>
    </clipPath>
    <linearGradient gradientUnits="userSpaceOnUse" gradientTransform="translate(0 -304) scale(1 -1)" y2="-463.7" x2="1126.9" y1="-309.2" x1="-7.1" id="linear-gradient">
      <stop stop-color="#68af85" offset="0"></stop>
      <stop stop-color="#5c9c75" offset=".2"></stop>
      <stop stop-color="#4a7e5d" offset=".5"></stop>
      <stop stop-color="#3e6c4f" offset=".8"></stop>
      <stop stop-color="#3b664a" offset="1"></stop>
    </linearGradient>
    <clipPath id="clippath-3">
      <rect height="182" width="1110.8" y="-8.4" x="-8.4" class="st0"></rect>
    </clipPath>
  </defs>
  <g class="st23">
    <g class="st5">
      <g id="Layer_11">
        <rect height="160" width="1100" class="st8"></rect>
        <g class="st12">
          <g>
            <rect height="186.1" width="1119.9" y="-12.5" x="-13.8" class="st18"></rect>
            <rect height="186.1" width="1119.9" y="-12.5" x="-13.8" class="st18"></rect>
            <g class="st14">
              <rect height="186.1" width="1119.9" y="-12.5" x="-13.8" class="st10"></rect>
            </g>
            <g class="st13">
              <g class="st24">
                <path d="M392.1,31.1c-34,96.3,245.5,44.8,627.1-114.6-3.7-2.7-7.6-5.3-11.6-8C647,59.1,382.9,107.8,415,16.8c18.3-51.9,129-138.1,287.8-231.4.8,0,1.5,0,2.2.2C552.5-124.6,446.1-41.7,428.5,8.2c-31,87.8,223.9,40.8,571.9-104.6-3.9-2.6-7.9-5.1-12-7.7C660.7,32.9,420.7,77.2,449.9-5.6c16.5-46.7,115.5-124.1,257.8-208,.4.2.8.5,1.1.8C573.8-133,480.1-59.5,464.4-15c-28,79.2,201.8,36.8,515.4-94.2-3.9-2.4-8-4.8-12-7.2C673.4,6.6,457.7,46.4,483.9-27.9c14.6-41.3,101-109.4,225.8-183.4,0,.4.2.8.2,1.2-116.5,69.4-197,133.1-210.8,172-24.9,70.5,179.7,32.8,458.9-83.9-3.9-2.2-7.8-4.4-11.8-6.6C684.9-19.4,493.4,15.9,516.7-50.1c12.7-35.9,86.3-94.4,193.1-158.5,0,.4-.2.8-.3,1.2v.3c-98,59.1-165.3,113-177.1,146.2-21.9,61.9,157.8,28.8,403-73.7-3.4-1.8-6.8-3.6-10.2-5.3C705.4-48,541.7-15.4,544.6-63c-2.9,47.5,160.8,14.9,380.5-76.9-.3-.2-.6-.3-.9-.5-229.2,95.8-397.1,126.7-376.7,68.9,5.6-15.8,24.7-36.7,54.2-60.6h0c3.5-2,7-4,10.4-5.9h0c.8-.5,1.7-.9,2.5-1.4.3-.1.5-.3.8-.4-1.1.6-2.2,1.2-3.3,1.9-27.6,22.4-45.5,41.9-50.7,56.7-19.1,54.1,137.9,25.2,352.3-64.4-3.1-1.5-6.2-3.1-9.2-4.6-201.6,84.2-349.2,111.4-331.2,60.6,4.9-13.9,21.7-32.2,47.7-53.3h0c3.5-2,6.9-4.1,10.3-6h0c-24,19.5-39.5,36.4-44,49.2-16.6,47,119.8,21.8,306-55.9-2.8-1.4-5.7-2.7-8.6-4.1-174.8,73-302.9,96.7-287.3,52.5,4.3-12.1,18.8-28,41.3-46.2-.8.5-1.7,1-2.6,1.6.9-.5,1.7-1,2.6-1.6h0c3.4-2.1,6.8-4.1,10-6.1h0c.8-.5,1.5-1,2.3-1.4h0c-.8.5-1.6,1-2.4,1.5-20.5,16.6-33.8,31.1-37.7,42.1-14.2,40.2,102.4,18.7,261.6-47.8-2.6-1.2-5.2-2.3-7.8-3.5-149.3,62.4-258.7,82.5-245.4,44.8,3.6-10.3,16.1-23.9,35.3-39.5h0c3.3-2.1,6.5-4.1,9.5-6h0c-17.2,14-28.3,26.1-31.6,35.3-11.9,33.7,85.9,15.7,219.5-40.1-2.3-1-4.6-2-6.9-2.9-125.1,52.3-216.8,69.2-205.6,37.6,3-8.6,13.5-20,29.6-33.1-.6.4-1.3.9-2,1.3.7-.4,1.3-.9,2-1.3h0c3.1-2,6-4,8.8-5.9h0c-14.1,11.4-23.2,21.4-25.9,29-9.8,27.7,70.5,12.9,180.1-32.9-2-.8-4-1.6-6-2.4-102.5,42.9-177.7,56.7-168.5,30.8,2.5-7.1,11-16.4,24.2-27.1h0c2.8-2,5.4-3.9,7.8-5.7h0c0,.1.2,0,.3,0h0c-.2.1-.3.2-.4.3-11.3,9.1-18.6,17.1-20.7,23.1-7.8,22.1,56.3,10.3,143.8-26.3-1.7-.6-3.5-1.3-5.2-1.9-81.8,34.2-141.7,45.2-134.4,24.6,2-5.6,8.8-13.1,19.3-21.6-.6.5-1.3,1-2,1.5,0,0,.2-.1.3-.2.6-.4,1.2-.9,1.7-1.3.2-.1.4-.3.6-.4,1.2-.9,2.3-1.8,3.5-2.7.4-.3.7-.6,1.1-.8-8.8,7.2-14.6,13.5-16.3,18.3-2.8,7.8,5.8,10.4,22.2,8.2,1.2-1.4,2.4-2.8,3.5-4.1,19.3-2.8,49.4-12.1,84.8-26.9-2.7-.9-5.3-1.8-7.9-2.6-29.7,12.4-55.2,20.4-72.2,23.2,4.2-6,6.7-11.3,7.9-15.9,10.3-1.9,25.4-6.7,42.8-13.9-2-.5-3.9-1-5.8-1.5-14.7,6.1-27.4,10.2-36.2,11.9.6-4.4,0-8-1.8-10.9.5-.3.9-.6,1.3-.9,1.7-1.1,3.4-2.1,5.1-3.2.7-.4,1.4-.9,2.2-1.3h0c1-.6,1.9-1.2,2.9-1.8,6.5-3.9,13.2-7.8,20.1-11.8,1.2-.7,2.5-1.4,3.7-2.1-.5.2-.9.5-1.4.8,25.7-14.6,54.3-29.4,84.8-43.8,2.1-1.1,4.2-2.3,6.4-3.4-43.3,20.5-83.3,41.9-116.6,62.1l-.2-.2c36.9-22.3,80.9-45.8,128.5-68.2,2.4-1.3,4.8-2.6,7.1-4-50.2,23.7-96.7,48.5-135.7,72l-.3-.3h0c42.5-25.5,92.8-52.3,147-78,2.6-1.5,5.2-3,7.8-4.5-57.2,27-110.2,55.2-155.2,82.1l-.4-.5c48.2-28.8,104.9-58.8,166-87.7,2.8-1.7,5.6-3.3,8.4-5-64.2,30.3-123.9,62-174.8,92.2l-.5-.6c54-32,117.1-65.4,184.9-97.4.3-.2.6-.4.9-.5-21,9.9-41.6,20-61.6,30.1,20-10.1,40.6-20.2,61.6-30.1,29.4-13.9,59.6-27.5,90.3-40.6,5-2.7,10-5.5,15-8.3-111.5,47.7-216.6,101.2-300.3,151.3-.3-.2-.6-.5-.9-.7,88.8-52.9,199.7-109.3,317.4-159.6,5.9-3.3,11.8-6.7,17.7-10-124.4,53.2-241.9,112.9-336.2,168.9-.4-.2-.8-.4-1.2-.6,99.1-58.7,222.1-121,352.3-176.7,6.2-3.6,12.3-7.1,18.3-10.6-137.5,58.8-267.5,124.6-372.5,186.6-.5-.2-1.1-.3-1.7-.5,109.5-64.5,244.5-132.8,387.4-193.9,6.3-3.8,12.6-7.5,18.7-11.2-150.8,64.5-293.3,136.5-409.2,204.6-.8,0-1.6-.1-2.4-.1,119.9-70.4,267.1-144.7,422.9-211.4,6.3-3.9,12.5-7.7,18.5-11.5C761-273.5,426.1-65.2,392.1,31.1ZM649-167.2h0c1-.7,2-1.4,3-2.1h0c-1,.7-2,1.3-2.9,2h0ZM641.4-162h0c.9-.6,1.9-1.3,2.8-1.9h0c-.9.7-1.8,1.3-2.6,1.9h-.2ZM634.1-156.8h0c.8-.6,1.7-1.2,2.6-1.8,0,0-.2.1-.3.2-.8.5-1.5,1.1-2.2,1.6h0ZM627-151.6h0c.7-.5,1.5-1.1,2.2-1.6-.2.1-.3.2-.4.3-.6.4-1.1.8-1.7,1.2h0ZM620.1-146.6h0c.6-.4,1.2-.9,1.8-1.3-.2.2-.5.4-.7.6-.3.2-.6.5-.9.7h-.2ZM614.4-142.3c-.3.3-.7.6-1.1.8.3-.3.7-.5,1.1-.8ZM600.8-131.6h0ZM620.8-143c-.8.5-1.7,1-2.5,1.4,0,0,.2-.1.3-.2.7-.4,1.5-.9,2.2-1.3h0ZM719.8-208.1c-.5.3-.9.6-1.4.9h0c.5-.3,1-.6,1.4-.9h0ZM696.7-192.4c.4-.3.8-.6,1.1-.9h-.2c-.3.3-.7.6-1,.9h.1ZM728.4-213.4c-.5.3-1,.6-1.4.9h0c.5-.3,1-.6,1.4-.9Z" class="st19"></path>
                <path d="M355.7,53.3c-36.9,104.5,266.3,48.6,680.1-124.3-3.4-2.7-7-5.5-10.8-8.2C632.5,84.7,344.9,137.8,379.9,38.7c35-99.1,379.6-313.4,773.8-482,6.1-3.9,12.1-7.7,17.8-11.5C755.8-277,392.6-51.2,355.7,53.3Z" class="st19"></path>
                <path d="M319.8,74.4c-39.6,112.1,285.8,52.1,730.1-133.5-2.9-2.7-6.1-5.5-9.5-8.3C617.1,109.5,307.1,166.6,344.8,59.8c37.7-106.8,409.2-337.8,834.2-519.6,5.8-3.9,11.2-7.6,16.4-11.2C749.3-280.2,359.4-37.7,319.8,74.4Z" class="st19"></path>
                <path d="M285,94c-42.1,119.2,303.8,55.4,775.8-141.8-2.3-2.6-4.8-5.4-7.7-8.2C601.2,132.8,270.2,193.8,310.5,79.7c40.3-114.1,436.9-360.7,890.6-554.8,5.2-3.7,10-7.2,14.4-10.6C741.4-282.8,327.1-25.2,285,94Z" class="st19"></path>
                <path d="M251.8,111.7c-44.3,125.4,319.7,58.3,816.5-149.2-1.4-2.5-3.2-5.1-5.4-7.8C584.8,154.3,234.7,218.9,277.2,98.2c42.6-120.7,462.2-381.6,942.2-586.9,4.3-3.4,8.2-6.6,11.6-9.6C732.1-284.9,296.1-13.7,251.8,111.7Z" class="st19"></path>
                <path d="M220.6,127.2c-46.2,130.7,333.2,60.8,851.1-155.6-.4-2.3-1.2-4.7-2.5-7.3C568.1,173.7,200.9,241.4,245.6,114.9c44.7-126.5,484.6-400.1,987.9-615.4,3.2-3,5.9-5.8,8-8.2C721.3-286.2,266.8-3.6,220.6,127.2Z" class="st19"></path>
                <path d="M193.3,139.5c-47.6,134.8,343.6,62.7,877.7-160.4.8-1.9,1.1-4,.9-6.1C551.1,190.5,169.6,260.8,216,129.4,262.4-2.1,719.5-286.4,1242.6-510.1c1.8-2.3,2.9-4.4,3.4-6.2C709.6-286.8,240.9,4.7,193.3,139.5Z" class="st19"></path>
              </g>
            </g>
          </g>
        </g>
        <g class="st5">
          <g class="st5">
            <g class="st5">
              <path d="M27.9,147.9v1.5h-1.2v-1.5c-1.8-.1-3-.8-3.9-1.8l1-1.3c.7.7,1.7,1.4,2.9,1.5v-3.7c-1.7-.4-3.6-1.1-3.6-3.2s1.4-3.1,3.6-3.2v-1.6h1.2v1.6c1.4.1,2.5.7,3.4,1.5l-1,1.3c-.6-.7-1.5-1.1-2.4-1.2v3.3c1.8.5,3.6,1.1,3.6,3.4s-1.1,3.2-3.6,3.4ZM26.7,140.8v-3.1c-1.1,0-1.8.7-1.8,1.6s.8,1.2,1.8,1.5ZM29.8,144.6c0-1-.8-1.4-1.9-1.7v3.4c1.4-.2,1.9-1,1.9-1.7Z" class="st16"></path>
              <path d="M38.2,145h-5.4v-1.4l4.8-7.2h2.3v7.1h1.6v1.5h-1.6v2.7h-1.7v-2.7h0ZM34.5,143.5h3.7v-5.6l-3.7,5.6Z" class="st16"></path>
              <path d="M44,145c.7.9,1.8,1.4,3.1,1.4s2.5-1,2.5-2.2-1-2.2-2.4-2.2-1.8.3-2.5,1l-1.2-.4v-6.2h7.2v1.5h-5.5v3.6c.5-.5,1.5-1,2.6-1,1.9,0,3.6,1.3,3.6,3.6s-1.8,3.8-4.2,3.8-3.2-.7-4.1-1.8l1-1.2h0Z" class="st16"></path>
              <path d="M63.2,146.6c-.6.7-1.7,1.3-2.9,1.3s-2.6-.9-2.6-2.6v-5.8h1.5v5.3c0,1.4.7,1.8,1.7,1.8s1.8-.5,2.3-1.2v-5.9h1.5v8.2h-1.5s0-1.1,0-1.1Z" class="st16"></path>
              <path d="M67.2,150.8v-11.3h1.5v1.2c.6-.8,1.6-1.4,2.7-1.4,2.1,0,3.7,1.6,3.7,4.3s-1.5,4.3-3.7,4.3-2-.5-2.7-1.4v4.3h-1.5ZM71,140.6c-.9,0-1.9.5-2.3,1.2v3.5c.4.6,1.3,1.2,2.3,1.2,1.5,0,2.5-1.2,2.5-3s-.9-2.9-2.5-2.9Z" class="st16"></path>
              <path d="M77.4,140.8h-1.4v-1.3h1.4v-.5c0-1.8,1-2.8,2.5-2.8s1,.1,1.3.3l-.4,1.1c-.2-.1-.5-.2-.7-.2-.8,0-1.2.5-1.2,1.5v.5h1.7v1.3h-1.7v6.9h-1.5v-6.9h0Z" class="st16"></path>
              <path d="M82,139.5h1.5v1.3c.6-.8,1.6-1.4,2.7-1.4v1.5h-.5c-.8,0-1.8.6-2.2,1.2v5.7h-1.5v-8.2h0Z" class="st16"></path>
              <path d="M87.3,143.6c0-2.4,1.6-4.3,4.1-4.3s4.1,1.9,4.1,4.3-1.6,4.3-4.1,4.3-4.1-1.9-4.1-4.3ZM94,143.6c0-1.5-.9-2.9-2.5-2.9s-2.5,1.4-2.5,2.9.9,3,2.5,3,2.5-1.4,2.5-3Z" class="st16"></path>
              <path d="M103,142.4c0-1.4-.7-1.8-1.8-1.8s-1.8.6-2.3,1.2v5.9h-1.5v-8.2h1.5v1.2c.5-.7,1.6-1.4,2.9-1.4s2.6.9,2.6,2.7v5.8h-1.5v-5.3h.1Z" class="st16"></path>
              <path d="M107.3,145.9v-5h-1.4v-1.3h1.4v-2.2h1.5v2.2h1.7v1.3h-1.7v4.7c0,.6.3,1,.8,1s.7-.2.8-.3l.4,1.2c-.3.3-.8.5-1.6.5-1.3,0-2-.7-2-2h0Z" class="st16"></path>
              <path d="M116.6,150.8v-11.3h1.5v1.2c.6-.8,1.6-1.4,2.7-1.4,2.1,0,3.7,1.6,3.7,4.3s-1.5,4.3-3.7,4.3-2-.5-2.7-1.4v4.3h-1.5ZM120.4,140.6c-.9,0-1.9.5-2.3,1.2v3.5c.4.6,1.3,1.2,2.3,1.2,1.5,0,2.5-1.2,2.5-3s-.9-2.9-2.5-2.9Z" class="st16"></path>
              <path d="M131.5,146.8c-.6.7-1.6,1.1-2.7,1.1s-2.9-.9-2.9-2.7,1.5-2.7,2.9-2.7,2.1.4,2.7,1.1v-1.4c0-1-.8-1.6-2-1.6s-1.7.4-2.5,1.1l-.7-1.1c.9-.9,2-1.3,3.4-1.3s3.3.8,3.3,2.9v5.5h-1.5v-.9h0ZM131.5,144.5c-.5-.6-1.3-.9-2.1-.9s-1.9.7-1.9,1.6.8,1.6,1.9,1.6,1.6-.3,2.1-.9v-1.4h0Z" class="st16"></path>
              <path d="M135.9,149.7c.6,0,.9-.2,1.2-.8l.5-1.1-3.4-8.3h1.6l2.6,6.4,2.6-6.4h1.6l-4,9.8c-.5,1.3-1.4,1.8-2.6,1.8s-.7,0-1-.1l.2-1.4c.2,0,.5.1.7.1h0Z" class="st16"></path>
              <path d="M153.9,142.2c0-1-.4-1.6-1.4-1.6s-1.6.6-2,1.2v5.9h-1.5v-5.5c0-1-.4-1.6-1.4-1.6s-1.6.6-2,1.2v5.9h-1.5v-8.2h1.5v1.2c.3-.5,1.4-1.4,2.7-1.4s2,.6,2.2,1.5c.5-.8,1.6-1.5,2.8-1.5s2.3.8,2.3,2.5v5.9h-1.5v-5.5h-.2Z" class="st16"></path>
              <path d="M161.4,139.3c2.5,0,4,1.9,4,4.4v.4h-6.5c.1,1.4,1.1,2.5,2.8,2.5s1.8-.3,2.4-1l.7,1c-.8.8-2,1.2-3.3,1.2-2.4,0-4.2-1.7-4.2-4.3s1.7-4.3,4.1-4.3h0ZM158.9,143h5c0-1.1-.8-2.4-2.5-2.4s-2.4,1.3-2.5,2.4Z" class="st16"></path>
              <path d="M172.9,142.4c0-1.4-.7-1.8-1.8-1.8s-1.8.6-2.3,1.2v5.9h-1.5v-8.2h1.5v1.2c.5-.7,1.6-1.4,2.9-1.4s2.6.9,2.6,2.7v5.8h-1.5v-5.3h.1Z" class="st16"></path>
              <path d="M177.2,145.9v-5h-1.4v-1.3h1.4v-2.2h1.5v2.2h1.7v1.3h-1.7v4.7c0,.6.3,1,.8,1s.7-.2.8-.3l.4,1.2c-.3.3-.8.5-1.6.5-1.3,0-2-.7-2-2h.1Z" class="st16"></path>
              <path d="M186.8,140.8h-1.4v-1.3h1.4v-.5c0-1.8,1-2.8,2.5-2.8s1,.1,1.3.3l-.4,1.1c-.2-.1-.5-.2-.7-.2-.8,0-1.2.5-1.2,1.5v.5h1.7v1.3h-1.7v6.9h-1.5v-6.9h0Z" class="st16"></path>
              <path d="M191,143.6c0-2.4,1.6-4.3,4.1-4.3s4.1,1.9,4.1,4.3-1.6,4.3-4.1,4.3-4.1-1.9-4.1-4.3ZM197.7,143.6c0-1.5-.9-2.9-2.5-2.9s-2.5,1.4-2.5,2.9.9,3,2.5,3,2.5-1.4,2.5-3Z" class="st16"></path>
              <path d="M201.2,139.5h1.5v1.3c.6-.8,1.6-1.4,2.7-1.4v1.5h-.5c-.8,0-1.8.6-2.2,1.2v5.7h-1.5v-8.2h0Z" class="st16"></path>
              <path d="M211.5,144.9c.7.9,1.9,1.4,3.2,1.4s2.5-.7,2.5-1.9-1-1.8-2.7-1.8-1.1,0-1.2,0v-1.5h1.2c1.4,0,2.5-.5,2.5-1.7s-1.1-1.8-2.4-1.8-2.1.5-3,1.3l-.9-1.1c.9-1,2.2-1.8,4-1.8s4,1.1,4,3-1.3,2.4-2.5,2.6c1.1.1,2.6,1,2.6,2.8s-1.6,3.3-4.1,3.3-3.4-.8-4.2-1.9l1-1.1v.2Z" class="st16"></path>
              <path d="M220.2,142.9h4.1v1.3h-4.1v-1.3Z" class="st16"></path>
              <path d="M236,142.2c0-1-.4-1.6-1.4-1.6s-1.6.6-2,1.2v5.9h-1.5v-5.5c0-1-.4-1.6-1.4-1.6s-1.6.6-2,1.2v5.9h-1.5v-8.2h1.5v1.2c.3-.5,1.4-1.4,2.7-1.4s2,.6,2.2,1.5c.5-.8,1.6-1.5,2.8-1.5s2.3.8,2.3,2.5v5.9h-1.5v-5.5h-.2Z" class="st16"></path>
              <path d="M239.5,143.6c0-2.4,1.6-4.3,4.1-4.3s4.1,1.9,4.1,4.3-1.6,4.3-4.1,4.3-4.1-1.9-4.1-4.3ZM246.2,143.6c0-1.5-.9-2.9-2.5-2.9s-2.5,1.4-2.5,2.9.9,3,2.5,3,2.5-1.4,2.5-3Z" class="st16"></path>
              <path d="M254.9,145c.7.9,1.8,1.4,3.1,1.4s2.5-1,2.5-2.2-1-2.2-2.4-2.2-1.8.3-2.5,1l-1.2-.4v-6.2h7.2v1.5h-5.5v3.6c.5-.5,1.5-1,2.6-1,1.9,0,3.6,1.3,3.6,3.6s-1.8,3.8-4.2,3.8-3.2-.7-4.1-1.8l1-1.2h-.1Z" class="st16"></path>
              <path d="M269.6,136.2c2.1,0,3.5,1,4.5,2.2l-1.4.8c-.6-.9-1.8-1.5-3.1-1.5-2.4,0-4.1,1.8-4.1,4.4s1.8,4.4,4.1,4.4,2.3-.6,2.9-1.1v-2h-3.6v-1.5h5.3v4.2c-1.1,1.2-2.7,2-4.6,2-3.2,0-5.9-2.3-5.9-5.9s2.6-5.9,5.9-5.9h0Z" class="st16"></path>
              <path d="M276.4,136.4h5.3c2,0,3.2,1.2,3.2,2.9s-.9,2.4-2,2.6c1.2.2,2.2,1.4,2.2,2.8s-1.2,3.1-3.3,3.1h-5.5v-11.3h0ZM281.4,141.2c1.1,0,1.8-.7,1.8-1.6s-.6-1.7-1.8-1.7h-3.3v3.3h3.3ZM281.5,146.2c1.2,0,1.9-.7,1.9-1.8s-.6-1.8-1.9-1.8h-3.4v3.5h3.4Z" class="st16"></path>
              <path d="M291.6,150.8v-11.3h1.5v1.2c.6-.8,1.6-1.4,2.7-1.4,2.1,0,3.7,1.6,3.7,4.3s-1.5,4.3-3.7,4.3-2-.5-2.7-1.4v4.3h-1.5ZM295.4,140.6c-.9,0-1.9.5-2.3,1.2v3.5c.4.6,1.3,1.2,2.3,1.2,1.5,0,2.5-1.2,2.5-3s-.9-2.9-2.5-2.9Z" class="st16"></path>
              <path d="M301.4,136.4h1.5v11.3h-1.5v-11.3Z" class="st16"></path>
              <path d="M310.4,146.8c-.6.7-1.6,1.1-2.7,1.1s-2.9-.9-2.9-2.7,1.5-2.7,2.9-2.7,2.1.4,2.7,1.1v-1.4c0-1-.8-1.6-2-1.6s-1.7.4-2.5,1.1l-.7-1.1c.9-.9,2-1.3,3.4-1.3s3.3.8,3.3,2.9v5.5h-1.5v-.9h0ZM310.4,144.5c-.5-.6-1.3-.9-2.1-.9s-1.9.7-1.9,1.6.8,1.6,1.9,1.6,1.6-.3,2.1-.9v-1.4h0Z" class="st16"></path>
              <path d="M319.9,142.4c0-1.4-.7-1.8-1.8-1.8s-1.8.6-2.3,1.2v5.9h-1.5v-8.2h1.5v1.2c.5-.7,1.6-1.4,2.9-1.4s2.6.9,2.6,2.7v5.8h-1.5v-5.3h0Z" class="st16"></path>
              <path d="M327.8,143.6c0-2.7.9-5.5,2.5-7.5l.9.7c-1.1,2.1-1.8,4.1-1.8,6.8s.6,4.7,1.8,6.8l-.9.7c-1.6-2-2.5-4.8-2.5-7.5Z" class="st16"></path>
              <path d="M337.3,147.9v1.5h-1.2v-1.5c-1.8-.1-3-.8-3.9-1.8l1-1.3c.7.7,1.7,1.4,2.9,1.5v-3.7c-1.7-.4-3.6-1.1-3.6-3.2s1.4-3.1,3.6-3.2v-1.6h1.2v1.6c1.4.1,2.5.7,3.4,1.5l-1,1.3c-.6-.7-1.5-1.1-2.4-1.2v3.3c1.8.5,3.6,1.1,3.6,3.4s-1.1,3.2-3.6,3.4ZM336.1,140.8v-3.1c-1.1,0-1.8.7-1.8,1.6s.8,1.2,1.8,1.5ZM339.2,144.6c0-1-.8-1.4-1.9-1.7v3.4c1.4-.2,1.9-1,1.9-1.7Z" class="st16"></path>
              <path d="M344.8,138.6l-1.8,1.9-1-1,3-3.1h1.5v11.3h-1.7v-9.1h0Z" class="st16"></path>
              <path d="M349.8,145c.7.9,1.8,1.4,3.1,1.4s2.5-1,2.5-2.2-1-2.2-2.4-2.2-1.8.3-2.5,1l-1.2-.4v-6.2h7.2v1.5h-5.5v3.6c.5-.5,1.5-1,2.6-1,1.9,0,3.6,1.3,3.6,3.6s-1.8,3.8-4.2,3.8-3.2-.7-4.1-1.8l1-1.2h-.1Z" class="st16"></path>
              <path d="M361.9,136h1.2l-4,12h-1.2l4-12Z" class="st16"></path>
              <path d="M374.3,142.2c0-1-.4-1.6-1.4-1.6s-1.6.6-2,1.2v5.9h-1.5v-5.5c0-1-.4-1.6-1.4-1.6s-1.6.6-2,1.2v5.9h-1.5v-8.2h1.5v1.2c.3-.5,1.4-1.4,2.7-1.4s2,.6,2.2,1.5c.5-.8,1.6-1.5,2.8-1.5s2.3.8,2.3,2.5v5.9h-1.5v-5.5h-.2Z" class="st16"></path>
              <path d="M377.8,143.6c0-2.4,1.6-4.3,4.1-4.3s4.1,1.9,4.1,4.3-1.6,4.3-4.1,4.3-4.1-1.9-4.1-4.3ZM384.5,143.6c0-1.5-.9-2.9-2.5-2.9s-2.5,1.4-2.5,2.9.9,3,2.5,3,2.5-1.4,2.5-3Z" class="st16"></path>
              <path d="M388.7,145.8c.6,0,1.1.5,1.1,1.1s-.5,1.1-1.1,1.1-1.1-.5-1.1-1.1.5-1.1,1.1-1.1Z" class="st16"></path>
              <path d="M399.9,139.3c2.5,0,4,1.9,4,4.4v.4h-6.5c.1,1.4,1.1,2.5,2.8,2.5s1.8-.3,2.4-1l.7,1c-.8.8-2,1.2-3.3,1.2-2.4,0-4.2-1.7-4.2-4.3s1.7-4.3,4.1-4.3h0ZM397.4,143h5c0-1.1-.8-2.4-2.5-2.4s-2.4,1.3-2.5,2.4Z" class="st16"></path>
              <path d="M411.7,150.8v-4.3c-.7.9-1.6,1.4-2.7,1.4-2.1,0-3.7-1.6-3.7-4.3s1.5-4.3,3.7-4.3,2.1.6,2.7,1.4v-1.2h1.5v11.3h-1.5ZM411.7,141.9c-.4-.7-1.4-1.2-2.3-1.2-1.5,0-2.5,1.2-2.5,2.9s1,3,2.5,3,1.9-.6,2.3-1.2v-3.5Z" class="st16"></path>
              <path d="M421.2,146.6c-.6.7-1.7,1.3-2.9,1.3s-2.6-.9-2.6-2.6v-5.8h1.5v5.3c0,1.4.7,1.8,1.7,1.8s1.8-.5,2.3-1.2v-5.9h1.5v8.2h-1.5v-1.1Z" class="st16"></path>
              <path d="M424.9,137.1c0-.5.5-1,1-1s1,.4,1,1-.4,1-1,1-1-.4-1-1ZM425.2,139.5h1.5v8.2h-1.5v-8.2Z" class="st16"></path>
              <path d="M427.9,139.5h1.6l2.6,6.4,2.6-6.4h1.6l-3.4,8.2h-1.6l-3.4-8.2h0Z" class="st16"></path>
              <path d="M436.6,136.8l.9-.7c1.6,2,2.5,4.8,2.5,7.5s-.9,5.5-2.5,7.5l-.9-.7c1.1-2.1,1.8-4,1.8-6.8s-.6-4.7-1.8-6.8Z" class="st16"></path>
              <path d="M446.4,139.5h1.5v1.3c.6-.8,1.6-1.4,2.7-1.4v1.5h-.5c-.8,0-1.8.6-2.2,1.2v5.7h-1.5v-8.2h0Z" class="st16"></path>
              <path d="M455.8,139.3c2.5,0,4,1.9,4,4.4v.4h-6.5c.1,1.4,1.1,2.5,2.8,2.5s1.8-.3,2.4-1l.7,1c-.8.8-2,1.2-3.3,1.2-2.4,0-4.2-1.7-4.2-4.3s1.7-4.3,4.1-4.3h0ZM453.2,143h5c0-1.1-.8-2.4-2.5-2.4s-2.4,1.3-2.5,2.4Z" class="st16"></path>
              <path d="M467.5,150.8v-4.3c-.7.9-1.6,1.4-2.7,1.4-2.1,0-3.7-1.6-3.7-4.3s1.5-4.3,3.7-4.3,2.1.6,2.7,1.4v-1.2h1.5v11.3h-1.5ZM467.5,141.9c-.4-.7-1.4-1.2-2.3-1.2-1.5,0-2.5,1.2-2.5,2.9s1,3,2.5,3,1.9-.6,2.3-1.2v-3.5Z" class="st16"></path>
              <path d="M471.2,139.8c.5-.3,1.1-1,1.2-1.6h-.3c-.5,0-.9-.4-.9-1s.5-1.1,1-1.1,1.2.5,1.2,1.4-.6,2.1-1.5,2.7l-.7-.6v.2Z" class="st16"></path>
              <path d="M481.4,146.5c-.6.8-1.6,1.4-2.7,1.4-2.1,0-3.7-1.6-3.7-4.3s1.5-4.3,3.7-4.3,2,.5,2.7,1.4v-4.3h1.5v11.3h-1.5v-1.2h0ZM481.4,141.9c-.4-.7-1.3-1.2-2.3-1.2-1.5,0-2.5,1.2-2.5,3s1,2.9,2.5,2.9,1.9-.5,2.3-1.2v-3.5Z" class="st16"></path>
              <path d="M486.1,145.8c.6,0,1.1.5,1.1,1.1s-.5,1.1-1.1,1.1-1.1-.5-1.1-1.1.5-1.1,1.1-1.1Z" class="st16"></path>
              <path d="M496.6,137.9h-3.5v-1.5h8.7v1.5h-3.5v9.8h-1.7v-9.8Z" class="st16"></path>
              <path d="M507.1,146.8c-.6.7-1.6,1.1-2.7,1.1s-2.9-.9-2.9-2.7,1.5-2.7,2.9-2.7,2.1.4,2.7,1.1v-1.4c0-1-.8-1.6-2-1.6s-1.7.4-2.5,1.1l-.7-1.1c.9-.9,2-1.3,3.4-1.3s3.3.8,3.3,2.9v5.5h-1.5v-.9h0ZM507.1,144.5c-.5-.6-1.3-.9-2.1-.9s-1.9.7-1.9,1.6.8,1.6,1.9,1.6,1.6-.3,2.1-.9v-1.4h0Z" class="st16"></path>
              <path d="M514,144.5l-2.3,3.2h-1.7l3.1-4.2-2.9-4h1.7l2.1,3,2.1-3h1.7l-2.9,4,3.1,4.2h-1.7l-2.3-3.2h0Z" class="st16"></path>
              <path d="M522.5,139.3c2.5,0,4,1.9,4,4.4v.4h-6.5c0,1.4,1.1,2.5,2.8,2.5s1.8-.3,2.4-1l.7,1c-.8.8-2,1.2-3.3,1.2-2.4,0-4.2-1.7-4.2-4.3s1.7-4.3,4.1-4.3h0ZM520,143h5c0-1.1-.8-2.4-2.5-2.4s-2.4,1.3-2.5,2.4Z" class="st16"></path>
              <path d="M528.4,145.5c.6.6,1.6,1.2,2.8,1.2s1.8-.5,1.8-1.2-.9-1.1-2-1.3c-1.4-.3-3-.7-3-2.5s1.1-2.4,3.1-2.4,2.4.5,3.1,1.2l-.7,1.1c-.5-.6-1.4-1-2.4-1s-1.7.4-1.7,1.1.9,1,1.9,1.2c1.4.3,3.1.7,3.1,2.6s-1.2,2.5-3.3,2.5-2.6-.4-3.4-1.3l.7-1.1h0Z" class="st16"></path>
              <path d="M550.1,147.7h-2c-.3-.3-.7-.7-1.1-1.1-.8.8-1.9,1.3-3.2,1.3-2,0-3.6-1.1-3.6-3.2s1.2-2.7,2.5-3.3c-.5-.9-.8-1.7-.8-2.5,0-1.5,1.3-2.7,3-2.7s2.7.8,2.7,2.3-1.4,2.4-2.9,3.2c.4.6.9,1.1,1.2,1.5.4.5.8,1,1.2,1.4.6-.9,1-1.8,1.2-2.5l1.3.6c-.4.9-.9,1.9-1.5,2.9.7.7,1.4,1.4,2.2,2.2h-.2ZM546,145.7c-.6-.6-1.2-1.3-1.5-1.6-.4-.5-.9-1.1-1.3-1.7-.8.5-1.5,1.2-1.5,2.2s1,2.1,2.1,2.1,1.6-.4,2.2-1ZM543.9,140.7c1.1-.6,2.1-1.1,2.1-2.2s-.5-1.2-1.2-1.2-1.5.6-1.5,1.5.3,1.2.6,1.8h0Z" class="st16"></path>
              <path d="M556.4,140.8h-1.4v-1.3h1.4v-.5c0-1.8,1-2.8,2.5-2.8s1,.1,1.3.3l-.4,1.1c-.2-.1-.5-.2-.7-.2-.8,0-1.2.5-1.2,1.5v.5h1.7v1.3h-1.7v6.9h-1.5v-6.9h0Z" class="st16"></path>
              <path d="M564.7,139.3c2.5,0,4,1.9,4,4.4v.4h-6.5c0,1.4,1.1,2.5,2.8,2.5s1.8-.3,2.4-1l.7,1c-.8.8-2,1.2-3.3,1.2-2.4,0-4.2-1.7-4.2-4.3s1.7-4.3,4.1-4.3h0ZM562.2,143h5c0-1.1-.8-2.4-2.5-2.4s-2.4,1.3-2.5,2.4Z" class="st16"></path>
              <path d="M574.2,139.3c2.5,0,4,1.9,4,4.4v.4h-6.5c0,1.4,1.1,2.5,2.8,2.5s1.8-.3,2.4-1l.7,1c-.8.8-2,1.2-3.3,1.2-2.4,0-4.2-1.7-4.2-4.3s1.7-4.3,4.1-4.3h0ZM571.7,143h5c0-1.1-.8-2.4-2.5-2.4s-2.4,1.3-2.5,2.4Z" class="st16"></path>
              <path d="M580.2,145.5c.6.6,1.6,1.2,2.8,1.2s1.8-.5,1.8-1.2-.9-1.1-2-1.3c-1.4-.3-3-.7-3-2.5s1.1-2.4,3.1-2.4,2.4.5,3.1,1.2l-.7,1.1c-.5-.6-1.4-1-2.4-1s-1.7.4-1.7,1.1.9,1,1.9,1.2c1.4.3,3.1.7,3.1,2.6s-1.2,2.5-3.3,2.5-2.6-.4-3.4-1.3l.7-1.1h0Z" class="st16"></path>
              <path d="M596.1,139.3c2.5,0,4,1.9,4,4.4v.4h-6.5c0,1.4,1.1,2.5,2.8,2.5s1.8-.3,2.4-1l.7,1c-.8.8-2,1.2-3.3,1.2-2.4,0-4.2-1.7-4.2-4.3s1.7-4.3,4.1-4.3h0ZM593.6,143h5c0-1.1-.8-2.4-2.5-2.4s-2.4,1.3-2.5,2.4Z" class="st16"></path>
              <path d="M604.3,144.5l-2.3,3.2h-1.7l3.1-4.2-2.9-4h1.7l2.1,3,2.1-3h1.7l-2.9,4,3.1,4.2h-1.7l-2.3-3.2h0Z" class="st16"></path>
              <path d="M610,145.9v-5h-1.4v-1.3h1.4v-2.2h1.5v2.2h1.7v1.3h-1.7v4.7c0,.6.3,1,.8,1s.7-.2.8-.3l.4,1.2c-.3.3-.8.5-1.6.5-1.3,0-2-.7-2-2h0Z" class="st16"></path>
              <path d="M614.9,139.5h1.5v1.3c.6-.8,1.6-1.4,2.7-1.4v1.5h-.5c-.8,0-1.8.6-2.2,1.2v5.7h-1.5v-8.2h0Z" class="st16"></path>
              <path d="M625.7,146.8c-.6.7-1.6,1.1-2.7,1.1s-2.9-.9-2.9-2.7,1.5-2.7,2.9-2.7,2.1.4,2.7,1.1v-1.4c0-1-.8-1.6-2-1.6s-1.7.4-2.5,1.1l-.7-1.1c.9-.9,2-1.3,3.4-1.3s3.3.8,3.3,2.9v5.5h-1.5v-.9h0ZM625.7,144.5c-.5-.6-1.3-.9-2.1-.9s-1.9.7-1.9,1.6.8,1.6,1.9,1.6,1.6-.3,2.1-.9v-1.4h0Z" class="st16"></path>
              <path d="M630.5,145.8c.6,0,1.1.5,1.1,1.1s-.5,1.1-1.1,1.1-1.1-.5-1.1-1.1.5-1.1,1.1-1.1Z" class="st16"></path>
              <path d="M638.2,136.4h7.6v1.5h-5.9v3.3h5.8v1.5h-5.8v5h-1.7v-11.3h0Z" class="st16"></path>
              <path d="M647.4,137.1c0-.5.5-1,1-1s1,.4,1,1-.4,1-1,1-1-.4-1-1ZM647.6,139.5h1.5v8.2h-1.5v-8.2Z" class="st16"></path>
              <path d="M651.6,139.5h1.5v1.3c.6-.8,1.6-1.4,2.7-1.4v1.5h-.5c-.8,0-1.8.6-2.2,1.2v5.7h-1.5v-8.2h0Z" class="st16"></path>
              <path d="M657.3,145.5c.6.6,1.6,1.2,2.8,1.2s1.8-.5,1.8-1.2-.9-1.1-2-1.3c-1.4-.3-3-.7-3-2.5s1.1-2.4,3.1-2.4,2.4.5,3.1,1.2l-.7,1.1c-.5-.6-1.4-1-2.4-1s-1.7.4-1.7,1.1.9,1,1.9,1.2c1.4.3,3.1.7,3.1,2.6s-1.2,2.5-3.3,2.5-2.6-.4-3.4-1.3l.7-1.1h0Z" class="st16"></path>
              <path d="M665.6,145.9v-5h-1.4v-1.3h1.4v-2.2h1.5v2.2h1.7v1.3h-1.7v4.7c0,.6.3,1,.8,1s.7-.2.8-.3l.4,1.2c-.3.3-.8.5-1.6.5-1.3,0-2-.7-2-2h0Z" class="st16"></path>
              <path d="M675,144.9c.7.9,1.9,1.4,3.2,1.4s2.5-.7,2.5-1.9-1-1.8-2.7-1.8-1.1,0-1.2,0v-1.5h1.2c1.4,0,2.5-.5,2.5-1.7s-1.1-1.8-2.4-1.8-2.1.5-3,1.3l-.9-1.1c.9-1,2.2-1.8,4-1.8s4,1.1,4,3-1.3,2.4-2.5,2.6c1.1.1,2.6,1,2.6,2.8s-1.6,3.3-4.1,3.3-3.4-.8-4.2-1.9l1-1.1v.2Z" class="st16"></path>
              <path d="M698.8,142.2c0-1-.4-1.6-1.4-1.6s-1.6.6-2,1.2v5.9h-1.5v-5.5c0-1-.4-1.6-1.4-1.6s-1.6.6-2,1.2v5.9h-1.5v-8.2h1.5v1.2c.3-.5,1.4-1.4,2.7-1.4s2,.6,2.2,1.5c.5-.8,1.6-1.5,2.8-1.5s2.3.8,2.3,2.5v5.9h-1.5v-5.5h-.2Z" class="st16"></path>
              <path d="M702.3,143.6c0-2.4,1.6-4.3,4.1-4.3s4.1,1.9,4.1,4.3-1.6,4.3-4.1,4.3-4.1-1.9-4.1-4.3ZM709,143.6c0-1.5-.9-2.9-2.5-2.9s-2.5,1.4-2.5,2.9.9,3,2.5,3,2.5-1.4,2.5-3Z" class="st16"></path>
              <path d="M712.5,145.5c.6.6,1.6,1.2,2.8,1.2s1.8-.5,1.8-1.2-.9-1.1-2-1.3c-1.4-.3-3-.7-3-2.5s1.1-2.4,3.1-2.4,2.4.5,3.1,1.2l-.7,1.1c-.5-.6-1.4-1-2.4-1s-1.7.4-1.7,1.1.9,1,1.9,1.2c1.4.3,3.1.7,3.1,2.6s-1.2,2.5-3.3,2.5-2.6-.4-3.4-1.3l.7-1.1h0Z" class="st16"></path>
              <path d="M721.2,145.8c.6,0,1.1.5,1.1,1.1s-.5,1.1-1.1,1.1-1.1-.5-1.1-1.1.5-1.1,1.1-1.1Z" class="st16"></path>
              <path d="M728.4,143.6c0-2.4,1.6-4.3,4.1-4.3s4.1,1.9,4.1,4.3-1.6,4.3-4.1,4.3-4.1-1.9-4.1-4.3ZM735.1,143.6c0-1.5-.9-2.9-2.5-2.9s-2.5,1.4-2.5,2.9.9,3,2.5,3,2.5-1.4,2.5-3Z" class="st16"></path>
              <path d="M744.2,142.4c0-1.4-.7-1.8-1.8-1.8s-1.8.6-2.3,1.2v5.9h-1.5v-8.2h1.5v1.2c.5-.7,1.6-1.4,2.9-1.4s2.6.9,2.6,2.7v5.8h-1.5v-5.3h0Z" class="st16"></path>
              <path d="M748.1,136.4h1.5v11.3h-1.5v-11.3Z" class="st16"></path>
              <path d="M752.6,149.7c.6,0,.9-.2,1.2-.8l.5-1.1-3.4-8.3h1.6l2.6,6.4,2.6-6.4h1.6l-4,9.8c-.5,1.3-1.4,1.8-2.6,1.8s-.7,0-1-.1l.2-1.4c.2,0,.5.1.7.1h0Z" class="st16"></path>
              <path d="M760.4,145.8c.6,0,1.1.5,1.1,1.1s-.5,1.1-1.1,1.1-1.1-.5-1.1-1.1.5-1.1,1.1-1.1Z" class="st16"></path>
              <path d="M768.3,144.8c.8.8,2,1.6,3.6,1.6s2.5-.9,2.5-1.8-1.3-1.5-2.7-1.9c-1.8-.5-3.9-1-3.9-3.3s1.6-3.2,4-3.2,3.1.6,4.1,1.6l-1,1.3c-.9-.9-2.1-1.3-3.3-1.3s-2.1.6-2.1,1.6,1.2,1.3,2.6,1.7c1.9.5,4,1.1,4,3.5s-1.2,3.4-4.3,3.4-3.5-.7-4.5-1.8l1-1.3h0Z" class="st16"></path>
              <path d="M781.6,139.3c2.5,0,4,1.9,4,4.4v.4h-6.5c0,1.4,1.1,2.5,2.8,2.5s1.8-.3,2.4-1l.7,1c-.8.8-2,1.2-3.3,1.2-2.4,0-4.2-1.7-4.2-4.3s1.7-4.3,4.1-4.3h0ZM779.1,143h5c0-1.1-.8-2.4-2.5-2.4s-2.4,1.3-2.5,2.4Z" class="st16"></path>
              <path d="M791.2,139.3c2.5,0,4,1.9,4,4.4v.4h-6.5c0,1.4,1.1,2.5,2.8,2.5s1.8-.3,2.4-1l.7,1c-.8.8-2,1.2-3.3,1.2-2.4,0-4.2-1.7-4.2-4.3s1.7-4.3,4.1-4.3h0ZM788.7,143h5c0-1.1-.8-2.4-2.5-2.4s-2.4,1.3-2.5,2.4Z" class="st16"></path>
              <path d="M801.8,145.9v-5h-1.4v-1.3h1.4v-2.2h1.5v2.2h1.7v1.3h-1.7v4.7c0,.6.3,1,.8,1s.7-.2.8-.3l.4,1.2c-.3.3-.8.5-1.6.5-1.3,0-2-.7-2-2h0Z" class="st16"></path>
              <path d="M810.3,139.3c2.5,0,4,1.9,4,4.4v.4h-6.5c0,1.4,1.1,2.5,2.8,2.5s1.8-.3,2.4-1l.7,1c-.8.8-2,1.2-3.3,1.2-2.4,0-4.2-1.7-4.2-4.3s1.7-4.3,4.1-4.3h0ZM807.8,143h5c0-1.1-.8-2.4-2.5-2.4s-2.4,1.3-2.5,2.4Z" class="st16"></path>
              <path d="M816.2,139.5h1.5v1.3c.6-.8,1.6-1.4,2.7-1.4v1.5h-.5c-.8,0-1.8.6-2.2,1.2v5.7h-1.5v-8.2h0Z" class="st16"></path>
              <path d="M831.9,142.2c0-1-.4-1.6-1.4-1.6s-1.6.6-2,1.2v5.9h-1.5v-5.5c0-1-.4-1.6-1.4-1.6s-1.6.6-2,1.2v5.9h-1.5v-8.2h1.5v1.2c.3-.5,1.4-1.4,2.7-1.4s2,.6,2.2,1.5c.5-.8,1.6-1.5,2.8-1.5s2.3.8,2.3,2.5v5.9h-1.5v-5.5h-.2Z" class="st16"></path>
              <path d="M835.9,145.5c.6.6,1.6,1.2,2.8,1.2s1.8-.5,1.8-1.2-.9-1.1-2-1.3c-1.4-.3-3-.7-3-2.5s1.1-2.4,3.1-2.4,2.4.5,3.1,1.2l-.7,1.1c-.5-.6-1.4-1-2.4-1s-1.7.4-1.7,1.1.9,1,1.9,1.2c1.4.3,3.1.7,3.1,2.6s-1.2,2.5-3.3,2.5-2.6-.4-3.4-1.3l.7-1.1h0Z" class="st16"></path>
              <path d="M844.6,145.8c.6,0,1.1.5,1.1,1.1s-.5,1.1-1.1,1.1-1.1-.5-1.1-1.1.5-1.1,1.1-1.1Z" class="st16"></path>
            </g>
          </g>
        </g>
        <path d="M678.6,50.1v-2.8c-2.3,0-4-.8-5.1-2.2s-1.7-3.4-1.8-5.9l4.2-.8c0,1,.2,2,.4,2.8s.5,1.4.9,1.8,1,.7,1.7.7,1.4-.2,1.7-.7.5-1.1.5-1.8c0-1.2-.3-2.1-.8-2.9s-1.2-1.5-2.1-2.2l-3.4-3c-.6-.5-1.2-1.1-1.6-1.7s-.8-1.3-1.1-2-.4-1.6-.4-2.7c0-2,.6-3.6,1.7-4.7,1.2-1.1,2.7-1.8,4.6-1.9v-2.7h1.4v2.6c1.1,0,2,.3,2.8.8.7.4,1.3,1,1.7,1.7s.8,1.4,1,2.3.3,1.7.4,2.6l-4.2.7c0-.8,0-1.6-.3-2.3,0-.7-.4-1.2-.8-1.6-.4-.4-.9-.6-1.6-.5-.8,0-1.3.3-1.7.7s-.6,1-.6,1.8.2,1.7.6,2.3c.4.6.9,1.2,1.6,1.7l3.4,2.9c.7.6,1.4,1.3,2,2.1s1.1,1.6,1.5,2.5.5,2,.5,3.2-.2,2.3-.7,3.2-1.1,1.7-2,2.3-1.9.9-3.1,1.1v2.8h-1.4v-.2h0Z" class="st16"></path>
        <path d="M705.8,122.6V40.3c-.5.2-1.5.6-2.9,1.1s-3.1,1-4.8,1.4-3.4.9-4.8,1.3-2.5.8-3.1,1v-12.9c1.2-.4,2.6-1,4.4-1.8s3.6-1.6,5.6-2.6,3.8-2,5.5-3.2,3.1-2.4,4.2-3.6h13.3v101.4h-17.3v.2h-.1Z" class="st16"></path>
        <path d="M753.4,124.1c-6.8,0-12-1.2-15.7-3.8s-6.3-6.1-7.7-10.7-2.1-10-2.1-16.2h16.9c0,3.4.2,6.4.7,9.1.5,2.6,1.4,4.7,2.8,6.1s3.4,2.2,6.1,2.1c2.9,0,5-.9,6.2-2.8s2-4.5,2.3-7.9.5-7.3.5-11.8-.2-7.3-.7-10.3c-.5-2.9-1.4-5.2-2.7-6.8-1.3-1.6-3.4-2.4-6.3-2.4s-4.4.8-6,2.4-2.8,3.8-3.5,6.4h-14.9l1-56.5h45.6v15.5h-31.1l-1,24.4c1.2-1.5,3.1-2.7,5.5-3.6,2.4-.9,5-1.5,8-1.6,5.3-.2,9.7.9,13,3.4s5.8,6.1,7.4,10.9c1.6,4.8,2.4,10.4,2.4,17s-.4,10.3-1.1,14.8c-.7,4.5-2,8.4-4,11.7-1.9,3.3-4.6,5.9-8.1,7.7-3.5,1.8-8,2.8-13.5,2.8h0Z" class="st16"></path>
        <path d="M779,122.8l5.3-18.5h2l-5.3,18.5h-2Z" class="st16"></path>
        <path d="M788.1,122.8l.3-18.5h3.5l2.6,12.8,2.7-12.8h3.4l.3,18.5h-2.5l-.3-12.8-2.6,12.8h-2l-2.7-12.9-.2,12.9h-2.5Z" class="st16"></path>
        <path d="M808.3,123c-1.3,0-2.3-.2-3.1-.7s-1.3-1.2-1.7-2.1c-.3-.9-.5-2-.5-3.2v-6.9c0-1.2.2-2.3.5-3.2s.9-1.6,1.7-2c.8-.5,1.8-.7,3.1-.7s2.4.2,3.2.7,1.3,1.2,1.7,2c.3.9.5,2,.5,3.2v6.9c0,1.2-.2,2.3-.5,3.2-.3.9-.9,1.6-1.7,2.1s-1.8.7-3.2.7ZM808.3,120.5c.6,0,1,0,1.2-.4.3-.2.4-.6.5-1v-11.3c0-.4-.3-.7-.5-1-.3-.2-.7-.3-1.2-.3s-.9,0-1.2.3c-.3.2-.5.6-.5,1v11.3c0,.4.3.8.5,1,.3.2.7.4,1.2.4h0Z" class="st16"></path>
        <path d="M22.1,91.1V21.3h20.5c4.2,0,7.6.8,10.2,2.3s4.5,3.8,5.8,6.8c1.2,3,1.8,6.5,1.8,10.7s-.8,8.2-2.3,11-3.7,4.8-6.5,6.1-6.1,1.9-9.9,1.9h-6.9v31h-12.7,0ZM34.8,51.1h4.8c2.3,0,4.1-.3,5.4-1,1.3-.7,2.2-1.7,2.7-3.2s.7-3.4.7-5.9-.2-4.6-.6-6.2c-.4-1.6-1.2-2.7-2.4-3.5s-3.2-1.1-5.8-1.1h-4.8v20.8h0Z" class="st16"></path>
        <path d="M65.7,91.1V21.3h16.7c4.7,0,8.7.6,11.9,1.7s5.7,3,7.4,5.7c1.7,2.7,2.5,6.4,2.5,11s-.3,5.3-.8,7.6-1.4,4.2-2.6,5.7c-1.2,1.6-2.9,2.8-5.1,3.7l9.7,34.4h-12.7l-8.4-31.9h-5.9v31.9s-12.7,0-12.7,0ZM78.4,51.1h4c2.5,0,4.4-.4,5.9-1.1,1.5-.7,2.5-1.9,3.2-3.4.6-1.6.9-3.6.9-6.1s-.6-6.1-1.9-7.9c-1.3-1.8-3.7-2.6-7.4-2.6h-4.7v21.1h0Z" class="st16"></path>
        <path d="M112.3,91.1V21.3h29.3v8.9h-16.5v20.1h13v8.9h-13v23.1h16.7v8.8h-29.5Z" class="st16"></path>
        <path d="M147.2,91.1l1.2-69.7h13.2l9.9,48.3,10.3-48.3h12.7l1.3,69.7h-9.5l-1-48.5-9.9,48.5h-7.7l-10.1-48.6-.9,48.6h-9.6s.1,0,.1,0Z" class="st16"></path>
        <path d="M204.8,91.1V21.3h12.6v69.7h-12.6Z" class="st16"></path>
        <path d="M245.5,92c-5.2,0-9.2-.9-12.1-2.8-2.9-1.9-4.9-4.6-5.9-8.1s-1.6-7.7-1.6-12.6V21.3h12.4v48.6c0,2.2.1,4.2.4,6.2.3,1.9,1,3.5,2,4.7s2.6,1.8,4.8,1.8,3.9-.6,4.9-1.8c1-1.2,1.7-2.7,2-4.7.3-1.9.5-4,.5-6.2V21.3h12.3v47.2c0,4.9-.5,9.1-1.6,12.6s-3.1,6.2-5.9,8.1-6.9,2.8-12.1,2.8h0Z" class="st16"></path>
        <path d="M273.2,91.1l1.2-69.7h13.2l9.9,48.3,10.3-48.3h12.7l1.3,69.7h-9.5l-1-48.5-9.9,48.5h-7.7l-10.1-48.6-1,48.6h-9.6s.2,0,.2,0Z" class="st16"></path>
        <path d="M357,91.1l-9.9-69.7h10.7l5.8,45.2,7.2-45h8.7l7.4,45,5.7-45.2h10.5l-9.7,69.7h-10.3l-7.8-46.8-7.7,46.8h-10.6Z" class="st16"></path>
        <path d="M409.6,91.1V21.3h12.6v69.7h-12.6Z" class="st16"></path>
        <path d="M431.2,91.1V21.3h16.7c4.7,0,8.7.6,11.9,1.7,3.2,1.1,5.7,3,7.4,5.7,1.7,2.7,2.5,6.4,2.5,11s-.3,5.3-.8,7.6-1.4,4.2-2.6,5.7c-1.2,1.6-2.9,2.8-5.1,3.7l9.7,34.4h-12.7l-8.4-31.9h-5.9v31.9s-12.7,0-12.7,0ZM444,51.1h4c2.5,0,4.4-.4,5.9-1.1,1.5-.7,2.5-1.9,3.1-3.4.6-1.6,1-3.6,1-6.1s-.6-6.1-1.9-7.9c-1.3-1.8-3.7-2.6-7.4-2.6h-4.6v21.1h-.1Z" class="st16"></path>
        <path d="M477.8,91.1V21.3h29.3v8.9h-16.5v20.1h13v8.9h-13v23.1h16.7v8.8h-29.5Z" class="st16"></path>
        <path d="M512.9,91.1V21.3h12.7v60.9h16.9v8.8h-29.6Z" class="st16"></path>
        <path d="M547.4,91.1V21.3h29.3v8.9h-16.5v20.1h13v8.9h-13v23.1h16.7v8.8h-29.5Z" class="st16"></path>
        <path d="M600.1,92c-4.2,0-7.7-.8-10.5-2.4s-4.9-4-6.4-7.2-2.2-7-2.4-11.6l10.9-2.2c0,2.7.5,5.1,1,7.2s1.4,3.7,2.5,4.8c1.1,1.1,2.6,1.7,4.4,1.7s3.5-.6,4.4-1.8c.8-1.2,1.3-2.8,1.3-4.7,0-3-.7-5.5-2.1-7.5s-3.2-3.9-5.5-5.9l-8.8-7.8c-2.5-2.1-4.4-4.5-5.9-7.1s-2.2-5.8-2.2-9.7,1.6-9.8,4.8-12.7c3.2-3,7.6-4.5,13.2-4.5s6,.5,8.2,1.5,3.9,2.4,5.2,4.2c1.3,1.8,2.2,3.8,2.9,6.1.6,2.3,1,4.7,1.2,7.2l-10.8,1.9c0-2.2-.4-4.1-.7-5.8-.4-1.7-1-3.1-2-4-1-1-2.3-1.5-4.2-1.5s-3.3.6-4.3,1.9c-1,1.2-1.5,2.8-1.5,4.6s.5,4.3,1.5,5.8,2.4,3.1,4.2,4.7l8.7,7.7c2.9,2.4,5.3,5.2,7.4,8.5,2,3.2,3,7.2,3,11.8s-.7,6.3-2.2,8.9-3.5,4.6-6.1,6.1-5.7,2.2-9.2,2.2h0v-.4h0Z" class="st16"></path>
        <path d="M639.9,92c-4.2,0-7.7-.8-10.5-2.4s-4.9-4-6.4-7.2-2.2-7-2.4-11.6l10.9-2.2c0,2.7.5,5.1,1,7.2s1.4,3.7,2.5,4.8c1.1,1.1,2.6,1.7,4.4,1.7s3.5-.6,4.4-1.8c.8-1.2,1.3-2.8,1.3-4.7,0-3-.7-5.5-2.1-7.5s-3.2-3.9-5.5-5.9l-8.8-7.8c-2.5-2.1-4.4-4.5-5.9-7.1s-2.2-5.8-2.2-9.7,1.6-9.8,4.8-12.7c3.2-3,7.6-4.5,13.2-4.5s6,.5,8.2,1.5,3.9,2.4,5.2,4.2c1.3,1.8,2.2,3.8,2.9,6.1.6,2.3,1,4.7,1.2,7.2l-10.8,1.9c0-2.2-.4-4.1-.7-5.8s-1-3.1-2-4c-1-1-2.3-1.5-4.2-1.5s-3.3.6-4.3,1.9c-1,1.2-1.5,2.8-1.5,4.6s.5,4.3,1.5,5.8,2.4,3.1,4.2,4.7l8.7,7.7c2.9,2.4,5.3,5.2,7.4,8.5,2,3.2,3,7.2,3,11.8s-.7,6.3-2.2,8.9-3.5,4.6-6.1,6.1-5.7,2.2-9.2,2.2h0v-.4h0Z" class="st16"></path>
        <g class="st5">
          <g class="st5">
            <g class="st5">
              <path d="M436.8,104.1h7.2c3.6,0,5.6,2.5,5.6,5.4s-2.1,5.4-5.6,5.4h-5v7.2h-2.2v-18ZM443.8,106.1h-4.7v6.9h4.7c2.1,0,3.6-1.4,3.6-3.4s-1.5-3.4-3.6-3.4h0Z" class="st16"></path>
              <path d="M452.7,104.1h2.2v16h8.4v2h-10.6v-18Z" class="st16"></path>
              <path d="M477.8,118.1h-9.1l-1.6,4h-2.5l7.2-18h2.8l7.3,18h-2.5l-1.6-4h0ZM469.3,116.1h7.8l-3.9-10-3.9,10Z" class="st16"></path>
              <path d="M486.4,107.6v14.5h-2.2v-18h2.3l10.4,14.2v-14.2h2.2v18h-2.2l-10.5-14.5h0Z" class="st16"></path>
              <path d="M503.5,117.9c1.2,1.3,3.1,2.6,5.7,2.6s4.2-1.7,4.2-3.1c0-2.2-2.2-2.8-4.6-3.4-2.9-.8-6.1-1.6-6.1-5.1s2.6-5,6.2-5,4.9.9,6.4,2.5l-1.3,1.6c-1.3-1.5-3.2-2.2-5.2-2.2s-3.7,1.2-3.7,2.9,2.1,2.3,4.4,3c2.9.8,6.3,1.7,6.3,5.5s-1.8,5.3-6.6,5.3-5.4-1.2-6.9-2.9l1.3-1.7h-.1Z" class="st16"></path>
              <path d="M526.3,117.9c1.2,1.3,3.1,2.6,5.7,2.6s4.2-1.7,4.2-3.1c0-2.2-2.2-2.8-4.6-3.4-2.9-.8-6.1-1.6-6.1-5.1s2.6-5,6.2-5,4.9.9,6.4,2.5l-1.3,1.6c-1.3-1.5-3.2-2.2-5.2-2.2s-3.7,1.2-3.7,2.9,2.1,2.3,4.4,3c2.9.8,6.3,1.7,6.3,5.5s-1.8,5.3-6.6,5.3-5.4-1.2-6.9-2.9l1.3-1.7h-.1Z" class="st16"></path>
              <path d="M546.2,106.1h-5.7v-2h13.7v2h-5.7v16h-2.2v-16h0Z" class="st16"></path>
              <path d="M566.7,118.1h-9.1l-1.6,4h-2.5l7.2-18h2.8l7.3,18h-2.5l-1.6-4h0ZM558.2,116.1h7.8l-3.9-10-3.9,10h0Z" class="st16"></path>
              <path d="M578.9,114.9h-3.6v7.2h-2.2v-18h7.2c3.3,0,5.6,2.1,5.6,5.4s-2.2,5-4.7,5.2l4.9,7.3h-2.6l-4.6-7.2h0ZM580.1,106.1h-4.7v6.9h4.7c2.1,0,3.6-1.4,3.6-3.5s-1.5-3.4-3.6-3.4Z" class="st16"></path>
              <path d="M593.7,106.1h-5.7v-2h13.7v2h-5.7v16h-2.2v-16h0Z" class="st16"></path>
              <path d="M622.9,118.1h-9.1l-1.6,4h-2.5l7.2-18h2.8l7.3,18h-2.5l-1.6-4h0ZM614.5,116.1h7.8l-3.9-10-3.9,10h0Z" class="st16"></path>
              <path d="M632,106.1h-5.7v-2h13.7v2h-5.7v16h-2.2v-16h0Z" class="st16"></path>
            </g>
          </g>
        </g>
        <line y2="114.8" x2="22.1" y1="114.8" x1="415.9" class="st1"></line>
        <rect ry="11.1" rx="11.1" height="51.6" width="154.8" y="70.9" x="879.4" class="st18"></rect>
        <g class="st5">
          <g class="st5">
            <g class="st5">
              <path d="M915.5,99.2c.9.9,2.2,1.7,3.9,1.7s2.1-.7,2.1-1.4-1.1-1.2-2.5-1.6c-2-.5-4.6-1-4.6-3.8s1.8-3.7,4.7-3.7,3.6.6,4.8,1.7l-1.5,1.9c-1-.9-2.3-1.3-3.5-1.3s-1.8.5-1.8,1.3,1,1.1,2.5,1.4c2,.5,4.6,1.1,4.6,3.8s-1.6,4-4.9,4-4.1-.8-5.2-2l1.4-2Z" class="st16"></path>
              <path d="M932,97.5c0-1.2-.6-1.6-1.7-1.6s-1.6.5-2,1.1v6h-2.3v-12.3h2.3v4.6c.6-.7,1.7-1.4,3.1-1.4s2.9,1.1,2.9,2.8v6.3h-2.3v-5.4h0Z" class="st16"></path>
              <path d="M936.1,98.4c0-2.5,1.8-4.7,4.7-4.7s4.7,2.1,4.7,4.7-1.8,4.7-4.7,4.7-4.7-2.1-4.7-4.7ZM943.1,98.4c0-1.4-.8-2.6-2.3-2.6s-2.3,1.2-2.3,2.6.8,2.6,2.3,2.6,2.3-1.2,2.3-2.6Z" class="st16"></path>
              <path d="M947.3,106.3v-12.3h2.3v1.1c.7-.9,1.7-1.3,2.8-1.3,2.3,0,4,1.7,4,4.7s-1.7,4.7-4,4.7-2-.4-2.8-1.4v4.5h-2.3ZM951.7,95.8c-.8,0-1.6.4-2,1v3.2c.4.6,1.3,1,2,1,1.4,0,2.3-1.1,2.3-2.6s-.9-2.6-2.3-2.6Z" class="st16"></path>
              <path d="M965.6,94.6v8.3h-2.6v-12.3h2.7l5.7,8v-8h2.6v12.3h-2.5l-5.9-8.3Z" class="st16"></path>
              <path d="M975.8,98.4c0-2.5,1.8-4.7,4.7-4.7s4.7,2.1,4.7,4.7-1.8,4.7-4.7,4.7-4.7-2.1-4.7-4.7ZM982.8,98.4c0-1.4-.8-2.6-2.3-2.6s-2.3,1.2-2.3,2.6.8,2.6,2.3,2.6,2.3-1.2,2.3-2.6Z" class="st16"></path>
              <path d="M992.9,96.8l-1.9,6.1h-2.5l-2.7-8.9h2.4l1.7,6,2-6h2.1l2,6,1.7-6h2.4l-2.7,8.9h-2.5l-1.9-6.1h0Z" class="st16"></path>
            </g>
          </g>
        </g>
        <g id="Horizontal_Color">
          <path d="M906.7,24.7c-3.3-.3-6,1.1-8,4.1-2-3-4.7-4.3-8-4.1-2.5.2-4.6,1.2-6.2,2.9-1.7,1.8-2.5,4.2-2.5,7.1v13.6h3.7v-14c0-1.7.5-3.2,1.4-4.4s2.2-1.8,3.8-1.8,3,.5,4.2,1.6c1.2,1,1.8,2.4,1.8,3.9v14.7h3.8v-14.7c0-1.5.6-2.9,1.8-3.9s2.6-1.6,4.2-1.6,2.8.6,3.8,1.8c1,1.2,1.5,2.7,1.5,4.4v14h3.7v-13.6c0-2.9-.9-5.3-2.6-7.1-1.6-1.7-3.7-2.6-6.3-2.9h-.1Z" class="st16"></path>
          <path d="M935.1,25c-3,0-5.5,1-7.5,3s-3,4.6-3,7.6v12.7h3.6v-13c0-1.8.7-3.5,2-4.8s3-2,4.8-2,3.4.7,4.8,2c1.4,1.3,2,3,2,4.8v13h3.6v-12.7c0-3-1-5.6-3-7.6s-4.5-3-7.4-3h.1Z" class="st16"></path>
          <path d="M957.1,31.4v-3.4h-5.3v-7.1h-3.6v20.5c0,4.9,2.9,7.4,8.7,7.4h.3v-3.1h-.3c-3.4,0-5.1-1.6-5.1-4.9v-9.5h5.3,0Z" class="st16"></path>
          <circle r="2.3" cy="26.7" cx="920.2" class="st16"></circle>
          <path d="M976.8,47.8c0,.6-.3,1-1,1s-.9-.3-.9-1v-7.6c0-.8-.3-1.5-.8-2-.6-.6-1.2-.8-2-.8s-1.5.3-2,.8-.8,1.2-.8,2v7.6c0,.6-.3,1-1,1s-.9-.3-.9-1v-7.6c0-.8-.3-1.5-.8-2s-1.2-.8-2-.8-1.5.3-2,.8-.8,1.2-.8,2v7.6c0,.6-.3,1-1,1s-1-.3-1-1v-11.5c0-.6.4-.9,1-.9s1,.3,1,1c.8-.6,1.8-1,2.9-1,1.6,0,2.8.7,3.8,1.9,1-1.3,2.2-1.9,3.8-1.9s2.4.5,3.4,1.4c.9.9,1.4,2.1,1.4,3.4v7.6h-.3Z" class="st16"></path>
          <path d="M991.9,42.2c0,1.8-.7,3.4-2,4.7s-2.9,2-4.7,1.9c-1.8,0-3.4-.7-4.7-2s-2-2.9-2-4.7.7-3.4,2-4.7,2.9-2,4.7-1.9c1.8,0,3.4.7,4.7,2s2,2.9,2,4.7ZM990,42.1c0-1.3-.5-2.4-1.4-3.4s-2.1-1.4-3.4-1.4-2.4.5-3.4,1.4c-.9.9-1.4,2-1.4,3.4s.5,2.4,1.4,3.4c.9.9,2.1,1.4,3.4,1.4s2.4-.5,3.4-1.4c.9-.9,1.4-2.1,1.4-3.4Z" class="st16"></path>
          <path d="M1006.9,42.2c0,1.8-.7,3.4-2,4.7s-2.9,2-4.7,1.9c-1.8,0-3.4-.7-4.7-2s-2-2.9-1.9-4.7v-11.4c0-.6.4-1,1-1s.9.3.9,1v6.7c1.3-1.3,2.9-2,4.8-2s3.4.7,4.7,2,2,2.9,1.9,4.7h0ZM1005,42.2c0-1.3-.5-2.4-1.4-3.4-.9-.9-2.1-1.4-3.4-1.4s-2.4.5-3.4,1.4c-.9.9-1.4,2-1.4,3.4s.5,2.4,1.4,3.4c.9.9,2,1.4,3.3,1.4s2.4-.5,3.4-1.4c.9-.9,1.4-2.1,1.4-3.4h.1Z" class="st16"></path>
          <path d="M1018.6,47.9c0,.6-.3,1-1,1-1,0-1.9-.4-2.7-1.1s-1.1-1.7-1.1-2.7v-14.3c0-.6.4-1,1-1s.9.3.9,1v14.3c0,.5.2,1,.5,1.3.4.4.8.6,1.3.6s1,.3,1,1h0Z" class="st16"></path>
          <path d="M1031.7,45.1v.5c-.5,1-1.3,1.8-2.4,2.4-1.1.6-2.2.9-3.4.9-1.8,0-3.4-.7-4.7-2s-2-2.9-2-4.7.7-3.4,2-4.7,2.9-2,4.7-1.9c.7,0,1.3,0,2.1.4.8.3,1.6.7,2.4,1.3,1,.8,1.4,1.5,1.4,2.2s-.2.6-.5.8l-9,5.2c.9,1.1,2.1,1.6,3.6,1.6s2.7-.5,3.6-1.6c0-.2.3-.4.6-.7s.5-.5.8-.5.5,0,.7.3c.2.2.3.4.3.7h0v-.2h-.2ZM1029.4,39.1c-.9-1.1-2.1-1.6-3.6-1.6s-2.4.5-3.4,1.4c-.9.9-1.4,2-1.4,3.4s0,1,.2,1.5l8.1-4.7h0Z" class="st16"></path>
          <path d="M1011.3,34.9c0,.4,0,.7-.4,1s-.6.4-1,.4-.7,0-1-.4c-.3-.3-.4-.6-.4-1s0-.7.4-1c.3-.3.6-.4,1-.4s.7,0,1,.4c.3.3.4.6.4,1Z" class="st16"></path>
          <path d="M920.2,30.1c-.7,0-1.3-.1-1.9-.4v18.6h3.6v-18.5c-.5.2-1.1.4-1.7.4h0Z" class="st16"></path>
          <path d="M1009.9,37.6c-.4,0-.7,0-1-.2v10.5c0,.6.3,1,.9,1s1-.3,1-1v-10.4h-.9Z" class="st16"></path>
          <path d="M906.7,24.7c-3.3-.3-6,1.1-8,4.1-2-3-4.7-4.3-8-4.1-2.5.2-4.6,1.2-6.2,2.9-1.7,1.8-2.5,4.2-2.5,7.1v13.6h3.7v-14c0-1.7.5-3.2,1.4-4.4s2.2-1.8,3.8-1.8,3,.5,4.2,1.6c1.2,1,1.8,2.4,1.8,3.9v14.7h3.8v-14.7c0-1.5.6-2.9,1.8-3.9s2.6-1.6,4.2-1.6,2.8.6,3.8,1.8c1,1.2,1.5,2.7,1.5,4.4v14h3.7v-13.6c0-2.9-.9-5.3-2.6-7.1-1.6-1.7-3.7-2.6-6.3-2.9h-.1Z" class="st16"></path>
          <path d="M935.1,25c-3,0-5.5,1-7.5,3s-3,4.6-3,7.6v12.7h3.6v-13c0-1.8.7-3.5,2-4.8s3-2,4.8-2,3.4.7,4.8,2c1.4,1.3,2,3,2,4.8v13h3.6v-12.7c0-3-1-5.6-3-7.6s-4.5-3-7.4-3h.1Z" class="st16"></path>
          <path d="M957.1,31.4v-3.4h-5.3v-7.1h-3.6v20.5c0,4.9,2.9,7.4,8.7,7.4h.3v-3.1h-.3c-3.4,0-5.1-1.6-5.1-4.9v-9.5h5.3,0Z" class="st16"></path>
          <circle r="2.3" cy="26.7" cx="920.2" class="st16"></circle>
          <path d="M976.8,47.8c0,.6-.3,1-1,1s-.9-.3-.9-1v-7.6c0-.8-.3-1.5-.8-2-.6-.6-1.2-.8-2-.8s-1.5.3-2,.8-.8,1.2-.8,2v7.6c0,.6-.3,1-1,1s-.9-.3-.9-1v-7.6c0-.8-.3-1.5-.8-2s-1.2-.8-2-.8-1.5.3-2,.8-.8,1.2-.8,2v7.6c0,.6-.3,1-1,1s-1-.3-1-1v-11.5c0-.6.4-.9,1-.9s1,.3,1,1c.8-.6,1.8-1,2.9-1,1.6,0,2.8.7,3.8,1.9,1-1.3,2.2-1.9,3.8-1.9s2.4.5,3.4,1.4c.9.9,1.4,2.1,1.4,3.4v7.6h-.3Z" class="st16"></path>
          <path d="M991.9,42.2c0,1.8-.7,3.4-2,4.7s-2.9,2-4.7,1.9c-1.8,0-3.4-.7-4.7-2s-2-2.9-2-4.7.7-3.4,2-4.7,2.9-2,4.7-1.9c1.8,0,3.4.7,4.7,2s2,2.9,2,4.7ZM990,42.1c0-1.3-.5-2.4-1.4-3.4s-2.1-1.4-3.4-1.4-2.4.5-3.4,1.4c-.9.9-1.4,2-1.4,3.4s.5,2.4,1.4,3.4c.9.9,2.1,1.4,3.4,1.4s2.4-.5,3.4-1.4c.9-.9,1.4-2.1,1.4-3.4Z" class="st16"></path>
          <path d="M1006.9,42.2c0,1.8-.7,3.4-2,4.7s-2.9,2-4.7,1.9c-1.8,0-3.4-.7-4.7-2s-2-2.9-1.9-4.7v-11.4c0-.6.4-1,1-1s.9.3.9,1v6.7c1.3-1.3,2.9-2,4.8-2s3.4.7,4.7,2,2,2.9,1.9,4.7h0ZM1005,42.2c0-1.3-.5-2.4-1.4-3.4-.9-.9-2.1-1.4-3.4-1.4s-2.4.5-3.4,1.4c-.9.9-1.4,2-1.4,3.4s.5,2.4,1.4,3.4c.9.9,2,1.4,3.3,1.4s2.4-.5,3.4-1.4c.9-.9,1.4-2.1,1.4-3.4h.1Z" class="st16"></path>
          <path d="M1018.6,47.9c0,.6-.3,1-1,1-1,0-1.9-.4-2.7-1.1s-1.1-1.7-1.1-2.7v-14.3c0-.6.4-1,1-1s.9.3.9,1v14.3c0,.5.2,1,.5,1.3.4.4.8.6,1.3.6s1,.3,1,1h0Z" class="st16"></path>
          <path d="M1031.7,45.1v.5c-.5,1-1.3,1.8-2.4,2.4-1.1.6-2.2.9-3.4.9-1.8,0-3.4-.7-4.7-2s-2-2.9-2-4.7.7-3.4,2-4.7,2.9-2,4.7-1.9c.7,0,1.3,0,2.1.4.8.3,1.6.7,2.4,1.3,1,.8,1.4,1.5,1.4,2.2s-.2.6-.5.8l-9,5.2c.9,1.1,2.1,1.6,3.6,1.6s2.7-.5,3.6-1.6c0-.2.3-.4.6-.7s.5-.5.8-.5.5,0,.7.3c.2.2.3.4.3.7h0v-.2h-.2ZM1029.4,39.1c-.9-1.1-2.1-1.6-3.6-1.6s-2.4.5-3.4,1.4c-.9.9-1.4,2-1.4,3.4s0,1,.2,1.5l8.1-4.7h0Z" class="st16"></path>
          <path d="M1011.3,34.9c0,.4,0,.7-.4,1s-.6.4-1,.4-.7,0-1-.4c-.3-.3-.4-.6-.4-1s0-.7.4-1c.3-.3.6-.4,1-.4s.7,0,1,.4c.3.3.4.6.4,1Z" class="st16"></path>
          <path d="M920.2,30.1c-.7,0-1.3-.1-1.9-.4v18.6h3.6v-18.5c-.5.2-1.1.4-1.7.4h0Z" class="st16"></path>
          <path d="M1009.9,37.6c-.4,0-.7,0-1-.2v10.5c0,.6.3,1,.9,1s1-.3,1-1v-10.4h-.9Z" class="st16"></path>
        </g>
        <g id="push-_left">
          <g id="tail_0_Layer2_0_FILL">
            <path d="M1122.4,67.1c4.7,1.8,8.6,4.3,11.6,7.4,4.1,4.2,6.7,9.5,7.7,15.8.8,5,.5,10.3-.7,16.1-.2,1.1-.5,2.2-.8,3.3-.3,1.1-.6,2.1-1,3.2-.6,1.8-1.3,3.3-1.9,4.6l-.7-2.9c-.6-2.5-1.2-4.8-1.8-6.8-1.5-4.9-2.9-8.4-4.3-10.2v-4.7c-.7.9-1.3,1.9-1.8,3-1.2-.6-2.4-1-3.7-1.3-1.5-.3-2.9-.5-4.4-.3-1.5,0-2.9.5-4.2,1.2-1.4.7-2.5,1.6-3.4,2.7-1.3,1.6-2.1,3.7-2.4,6.2-.2,1.8-.2,4.2,0,6.9.3,3.3.5,5.6.5,6.9,0,2.6-.5,4.8-1.4,6.6,0,0,0,.3-.2.4-.8,1.4-1.8,2.6-3.2,3.7-1.4,1.1-3,1.9-4.8,2.5-3.1,1-6.7,1.2-10.8.6-2.1-.3-3.9-.8-5.4-1.4-1.9-.8-3.3-1.8-4.4-3.1v-.4c-.2-1-.3-1.6,0-1.7h.2c.4-.3.8-.5,1.1-.7.8-.6,1.4-1,1.7-1.3,1.4-1.3,2.3-3.1,2.6-5.3.3-2,.2-4-.4-6.2-.4-1.5-1.1-3.4-2.1-5.8-1.2-2.8-2.1-4.7-2.4-5.7-1-2.9-1.5-5.8-1.6-8.8,0-3.1.4-6,1.3-8.8.7-2.1,1.8-4.2,3.2-6.5.7-1.2,1.4-2.1,2.1-3,.8-1,1.6-1.9,2.5-2.6,1.3-1.1,2.9-2,4.9-2.9,2.9-1.3,6-2.2,9.4-2.8,3.8-.7,7-.8,9.7-.3,3.6.7,6.8,1.6,9.7,2.7h0l-.3-.2h0Z" class="st17"></path>
          </g>
          <g id="tail_0_Layer1_0_FILL">
            <path d="M1114.2,65.8c-2.6-.2-4.7,0-6.1.6-2,.7-4.1,1.9-6.2,3.5-2,1.5-3.9,3.2-5.6,5.2-1.7,1.9-3.2,3.9-4.3,5.9-1.2,2.1-1.9,4-2.2,5.8-.8,4.7-.6,9.4.8,14.1,1.2,4.2,1.7,8.2,1.4,11.9-.3,4.1-1.5,7.6-3.7,10.6l-7.5,1.7c.4-.3.8-.5,1.1-.7.8-.6,1.4-1,1.7-1.3,1.4-1.3,2.3-3.1,2.6-5.3.3-2,.2-4-.4-6.2-.4-1.5-1.1-3.4-2.1-5.8-1.2-2.8-2.1-4.7-2.4-5.7-1-2.9-1.5-5.8-1.6-8.8,0-3.1.4-6,1.3-8.8.7-2.1,1.8-4.2,3.2-6.5.7-1.2,1.4-2.1,2.1-3,.8-1,1.6-1.9,2.5-2.6,1.3-1.1,2.9-2,4.9-2.9,2.9-1.3,6-2.2,9.4-2.8,3.8-.7,7-.8,9.7-.3,3.6.7,6.8,1.6,9.7,2.7-3.1-.7-5.8-1.1-8.2-1.3h-.1Z" class="st3"></path>
          </g>
          <g id="Layer16_0_FILL">
            <path d="M1087,119.2c.2,0,.3.3.5.6.8,1.1,1.4,2.1,1.7,3,.2.6.4,1.5.5,2.6v1c0,.3,0,.7-.2,1.2-.2,1-.4,1.7-.8,2.2-.2.3-.6.8-1.1,1.4-.2.2-.3.3-.4.3-.2,0-.4,0-.6-.2,0-.1-.2-.3-.4-.5-.2-.5-.4-1-.5-1.6,0-.4-.2-1-.3-1.7,0-.8-.2-1.4-.2-1.9v-3.7c0-.8.2-1.4.4-2,0,0-.2,0-.2-.2v-.3c0-.2.3-.3.5-.3s.4,0,.7.3h0l.3-.2h0Z"></path>
          </g>
          <path d="M1060.4,103.3l-7.6-2.4c-2.9-.9-5.2-1.6-6.9-2,0-.2.4-.5.7-1-.4,0-.8.2-1.2.3-.8.2-1.3.3-1.3.3l.9-1-2.3.4c.2-.2.6-.6,1.2-1.2-1.1.2-1.7.2-1.9.3-.2,0-.7.5-1.4,1.2l-1.2,1.1-.2.8.7.5-1.5,1,3,.5-1.4,1,2.3.2c4.5,3,8.4,5.2,12,6.7,7.2,3.1,11,2.6,11.2-1.7,0-1.5-.7-2.8-2.4-3.8-.8-.5-1.7-.9-2.6-1.1M1051.7,92.5h0Z" class="st9" id="rt_shoulder"></path>
          <g id="Layer10_0_FILL">
            <path d="M1046.6,96.5c0,.8,0,1.5-.6,2.2l-.3.4c-.2.2-.4.4-.6.5-.7.4-1.3.6-1.8.5-.5,0-1.1,0-1.7-.4-.6-.3-1-.7-1.2-1.1l-9.1-12.4c-.2-.4-.2-.8,0-1.2.2-.4.4-.7.8-.9l.5-.3c.3-.2.7-.3,1.1-.3.6,0,.9.2,1.2.6l11.2,10.7c.3.5.5,1.1.6,1.7h0Z" class="st21"></path>
          </g>
          <path d="M1030.3,74.4s.3-.2.4-.2h.3c.3,0,.7.3,1.9,1.7,1.2,1.5,1.5,2,1.6,2.3l1.2,5.5v1.1c-.2.3-.4.5-.8.5h-.4c-.3,0-.7-.2-.9-.6-.3-.3-.5-.7-.6-1.1l-1.1-4.9c-.3-.4-.7-.8-.9-1.2-.4-.6-.6-1.1-.8-1.7-.3-.8,0-1.2.3-1.3h-.2Z" class="st20"></path>
          <path d="M1030.6,75.9c0-.8.4-1.1.7-1.2h.7c.2,0,.5.5,1.1,2.3.2.5.3,1.1.4,1.5,0,.5.2.9.2,1.1l-.5,5.6c0,.4-.2.8-.4,1-.2.2-.3.2-.6.2h-.6c-.3-.3-.5-.6-.7-1s-.2-.8-.2-1.2l.3-5c-.2-.4-.3-.9-.3-1.5v-1.8h0Z" class="st20"></path>
          <path d="M1035.9,85c-.2-1.3-.7-2.5-1.4-3.5-.7-1.1-1.5-1.7-2.3-1.9-.8-.2-1.2.3-1.5,1.5-.2,1-.2,2.3,0,3.8.2,1.3,1.1,2,2.8,2s2.5-.5,2.3-1.8h0Z" class="st20"></path>
          <polygon points="1053.4 135.5 1047.7 139.8 1050.9 157.6 1056.8 155.4 1058.1 137.4 1053.4 135.5" class="st7"></polygon>
          <path d="M1058.1,156.6c-.5-1.1-1.2-1.8-2.3-2.1-1-.4-2.7-.4-5.1-.2-2.6.3-4.4.5-5.2.8-.5.1-1,.5-1.5,1-.4.5-.8,1-1.1,1.6-.3.6-.4,1.1-.3,1.5,0,.5.3.7.8.7h7.5c2.7,0,4.9-.1,6.7-.2.6,0,.9-.4.9-1.2s0-1.3-.4-2h0Z" class="st7"></path>
          <path d="M1073.9,140.8c0-1.9-2.2-2.1-3.7-3.2-2-1.5-4.8-6.6-5.9-9.6l-16.2,10.3,5.8,1.7-2.5,3.2h4.3c0,.1-3,3.3-3,3.3,4.2-.8,16.9-4.8,21.2-5.6h0Z" class="st9"></path>
          <path d="M1067.8,141.5c-1.9-2-3.4-5.3-4-8l7.4,5.1c.8,1.1,2.8.8,2.7,2.2l-15.3,4.1c-.2,0,9.6-3.3,9.3-3.3h0Z"></path>
          <path d="M1094.5,124.2c-.4-2.8-1.8-5.4-4.2-7.8-.9-.9-1.9-1.8-3.2-2.6-.6-.4-1.6-1.1-3-2-1.1-.7-2.6-2.3-4.6-4.9-1.1-1.5-1.9-2.6-2.4-3.3-1-1.3-1.7-2.3-2.3-3-1.7-2.1-4.3-3.7-7.8-4.7-1.5-.4-3-.7-4.4-.8h-2.6c-.3,0-.6,0-.9.2-1,.3-1.7.7-2.1.9-.4.3-.7.8-.9,1.3,0,.5-.2,1.2,0,2.3v3.9c0,2.8.2,5.3.6,7.6.3,1.9.8,4.5,1.5,7.8v.4c.3,1.2.6,2.4.9,3.5,1.1,3.8,2.6,7.1,4.3,9.9,1.9,3.1,3.9,5.2,6.1,6.3,1.3.8,3,1.2,4.9,1.4,1.4.1,2.7.1,4,0h.6c.4,0,.8-.2,1.2-.3,2.2-.6,4.3-1.4,6.2-2.6,1.8-1.1,3.3-2.5,4.6-4.1,1.3-1.5,2.2-3.1,2.8-4.8.6-1.7.8-3.3.6-4.8h0v.2Z" class="st9"></path>
          <path d="M1094.5,124.2c-.4-2.8-1.8-5.4-4.2-7.8-.9-.9-1.9-1.8-3.2-2.6-.6-.4-1.6-1.1-3-2-1.1-.7-2.6-2.3-4.6-4.9-1.1-1.5-1.9-2.6-2.4-3.3-1-1.3-1.7-2.3-2.3-3-1.7-2.1-4.3-3.7-7.8-4.7-1.5-.4-3-.7-4.4-.8h-2.6c-.2,1-.2,2.1-.3,3.1v3.9c0,3.8.5,7.6,1.2,11.2.2,1.2.5,2.5.8,3.7.3,1.3.6,2.5,1,3.8.3,1.1.7,2.2,1.1,3.3,1.2,3.6,3.1,6.8,5.5,9.7,1.4,1.7,3,3.1,4.7,4.4,1.3.9,2.7,1.7,4.1,2.4,0,0,.3.1.4.2h.6c.4,0,.8-.2,1.2-.3,2.2-.6,4.3-1.4,6.2-2.6,1.8-1.1,3.3-2.5,4.6-4.1,1.3-1.5,2.2-3.1,2.8-4.8.6-1.7.8-3.3.6-4.8h0Z" class="st11"></path>
          <path d="M1077.7,123.8c-.8-3.6-2.5-6.8-5.3-9.5-2.6-2.5-5.2-5-7.7-7.5-2.3-2.2-4-4.8-5-7.7v-.3l-1.1,4.7c-.7,3.3-1,5.6-.9,6.7.4,3,.9,5.9,1.6,8.8v.4c.2,1.1.7,2.3,1.2,3.6,0,.3.2.6.4.9.4.9,1.1,2.3,1.9,4.1,1.4,3.1,3.5,5.8,6.3,7.9,1,.8,2,1.4,3.1,1.9.8.4,1.5.6,1.9.7h0c.4-.5.9-1,1.3-1.6.9-1.1,1.5-1.9,1.6-2.4,1.3-3.4,1.5-7,.7-10.8h0Z" class="st2"></path>
          <polygon points="1096.8 134.3 1091 137.1 1091 144.1 1107.2 154.7 1109.8 148.6 1096.8 134.3" class="st7"></polygon>
          <path d="M1100.5,143.6h0l-1.7-4.1,4.8,1.4-13.2-17.3-.5.2c-.4.2-.8.4-1.2.7-1.2.9-2.1,2.1-2.6,3.4-.6,1.8-2.1,4-4.4,6.7-1.2,1.3-2.3,2.5-3.4,3.5l18.5,10.9-.7-6.4,4.7.9v-.2h0l-.3.3h0Z" class="st11"></path>
          <path d="M1073.3,103.1c-1.4-.6-2.8-.4-4.4.8-.8.6-1.4,1.2-2,1.9l-5.1,6.1c-1.9,2.3-3,3.7-4.1,5.1l.9,3.9.7,3,.5-1.2c4.4-3,8-5.8,10.8-8.5,5.6-5.5,6.5-9.2,2.7-11h0Z" class="st4"></path>
          <g id="rt_arm">
            <path d="M1057.8,118.9c0-.4-.4-.8-.8-1.1-.4-.3-.8-.5-1.2-.6l-20.6-2.1c-.3,0-.7,0-.9.4-.2.3-.4.6-.4.8v1.4c.2.4.4.7.8.7l19.9,4.1h1.5c.7-.2,1.1-.6,1.5-1.1l.2-.3c0-.2.2-.4.2-.6,0-.7,0-1.2-.2-1.5h0Z" class="st7"></path>
            <path d="M1039,116.7c0-.6-.2-1.2-.4-1.7l-1.2-5.5c0-.3-.3-.9-1.7-2.4-.2-.2-.3-.3-.4-.5-.2-.5-.4-.6-.5-.7h0c-.4-.5-.7-.6-.9-.6h-.3c-.2,0-.3,0-.4.2-.3.2-.6.6-.3,1.4.2.5.4,1,.7,1.5v.6c0,.6.2,1.2.4,1.6v1.4c-.2.2-.2.4-.3.6-.2.8-.2,1.9,0,3v.3c0,.4,0,.9.2,1.3s.4.8.8.9h.3q0,.2.2.2c.5.2,1,.3,1.7.3,1.8,0,2.6-.6,2.4-2h-.3Z" class="st20"></path>
          </g>
          <path d="M1066.9,104.6l-5.1,6.1c-1.9,2.3-3.4,4.2-4.5,5.6,0-.2-.3-.5-.7-1,0,.4,0,.8-.2,1.3-.2.8-.2,1.3-.2,1.3l-.6-1.2-.5,2.3c0-.3-.4-.8-.7-1.6-.3,1.1-.4,1.7-.4,1.8s.2.8.6,1.8l.6,1.5.7.5.7-.4.4,1.7,1.6-2.6.4,1.7,1.1-2.1c4.4-3,8-5.8,10.8-8.5,5.6-5.5,6.5-9.2,2.7-11-1.4-.6-2.8-.4-4.4.8-.8.6-1.4,1.2-2,1.9M1053.5,108.5h0Z" class="st11" id="rt_shoulder-2"></path>
          <path d="M1044.9,100.6s12.6,8.2,14.8,10c0,0,4.1-3.4,5.2-4,4.6-2.4,11.1-7.7,20.1-7.7-2.6-1.9-42.3.4-40,1.7h0Z"></path>
          <g>
            <path d="M1057.2,90.5c-.2-2.9-.7-5.9-1.7-8.8-2.3-6.8-6.3-12.2-12.2-16.4l-.2.4c0,.3-.2.5-.4.5-.6,0-1.7.6-3,1.5-1.6,1-2.6,1.6-3,1.8-.2,0-.6,0-1.2-.4l-.9-.5c-2.1,8-1.4,15.8,2.2,23.2.6,1.2,1.2,2.3,1.8,3.3h2.3c.9,0,2.6-.3,4.8-.8l5.1-1.2c2.4-.9,4.5-1.8,6.3-2.4h0v-.2h0Z" class="st9"></path>
            <path d="M1038.9,66.5l-.5,1.5c-1.1,3.6-1.5,7.2-1.3,10.9.2,3.7,1.1,7.3,2.7,10.7.7,1.6,1.5,3.1,2.5,4.4h2.7c.2,0,1.1-.2,2.7-.5l3.7-.9c.8-.3,1.6-.6,2.3-.9v-.9c-.2-3.8-1.1-7.3-2.7-10.7-2.6-5.8-6.7-10.3-12.1-13.5h0Z" class="st3"></path>
            <path d="M1043.6,65.6s0-.5-.8-.4c-.8.2-8.9,4.7-8.7,5,.5,1,1.9,3,4.1,4.9,0,0,4.3-5.3,5.4-9.5h0Z" class="st6"></path>
            <path d="M1043.3,65.2h-1c-.7.2-1.6.4-2.5.7-2.6.8-4.4,1.7-5.5,2.6l-.3.5c-.2.4-.2.8,0,1.1.5.9,1.8,2.3,3.9,4.1l.7-.9c.6-.8,1.1-1.6,1.6-2.3,1.6-2.4,2.7-4.3,3.1-5.7h0Z" class="st15"></path>
            <path d="M1087.3,68.8c-.2-1.9-.5-3.8-1-5.5-8.3,1.8-15,6.1-20.1,13-2.9,4-4.9,8.2-5.9,12.8,1,.8,1.9,1.5,2.8,2.1.3.2.8.5,1.6.8.7.3,1.4.6,2.1.9.6.3,1.2.6,1.7.8h0c1,.5,1.6.8,1.9.8.9.2,1.8.4,2.7.4s1.6,0,1.8.2h3.3c.9-1,1.8-2,2.6-3.1,5.1-6.9,7.3-14.7,6.5-23.3" class="st11"></path>
            <path d="M1083.7,69l-.2-1.6c-6,2.1-10.9,5.6-14.7,10.7-2.2,3-3.8,6.3-4.8,9.9,0,.5-.2,1-.4,1.5.4.2.8.5,1.3.8s1,.6,1.5.8l1.4.7,1.6.7c.5.2,1.1.4,1.6.5.3,0,.7.2,1.4.2h1c.4,0,.9,0,1.3-.2h.5c.9-1,1.8-2,2.7-3.2,2.2-3,3.8-6.3,4.8-9.9s1.3-7.2,1-11h0Z" class="st2"></path>
            <path d="M1048.2,99.1c-.4-.7-1.2-1.3-2.2-1.8-1.2-.6-2.7-.9-4.3-.9-2.9.2-5.4.9-7.4,2.3-2.1,1.4-3.5,3.3-4.3,5.8l.9-.8c.8-.7,1.8-1.2,2.8-1.7,3.4-1.5,7.3-1.9,11.9-1,1.2.2,2.1.2,2.6-.2.4-.4.5-.9,0-1.5v-.2Z" class="st9"></path>
            <path d="M1088.8,102l.9.8c-1-2.4-2.5-4.2-4.7-5.5-1.3-.8-2.7-1.3-4.2-1.6s-2.2-.3-3.3-.3c-1.6.2-3.1.5-4.2,1.2h-.2c-.9.5-1.5,1.1-1.9,1.8-.4.7-.3,1.2.2,1.5.4.3,1,.4,1.8.3.2,0,.5,0,.8-.2,2.5-.6,4.8-.9,7-.7,1.8,0,3.4.5,4.9,1.1,1.1.4,2.1.9,2.9,1.6h0Z" class="st11"></path>
            <path d="M1083.8,86.6c-2.5-3.3-5.6-5.9-9.2-7.8-4.5-2.4-9.8-3.7-15.8-3.9l1,34.9c1.3-1.1,2.8-2.2,4.4-3.4.2-.2.4-.3.7-.5,3.7-2.7,6.5-4.5,8.2-5.2h0c2.7-1.2,5.3-2.1,7.8-2.6,1.1-.2,2.1-.4,3.1-.5,1.8-.2,3.5-.2,5.1,0-.2-.9-.5-2.1-1.1-3.4-1.1-2.8-2.5-5.3-4.3-7.7h.1Z" class="st11"></path>
            <path d="M1058.9,74.9c-6,.5-11.2,2.1-15.5,4.7-3.5,2.1-6.4,4.9-8.8,8.3-1.7,2.4-2.9,5.1-3.9,7.9s-.8,2.6-.9,3.5c1.6-.3,3.3-.4,5.1-.3,3.4.2,7.1,1,11.1,2.6,1.8.7,4.6,2.3,8.5,4.8.2.2.5.3.7.4,1.7,1.1,3.2,2.1,4.6,3.1l-1-34.9h.1Z" class="st9"></path>
            <g id="Layer41_0_FILL">
              <path d="M1059.8,109.9v-3.2h-4.6c1.7,1.2,3.2,2.2,4.6,3.2Z" class="st22"></path>
              <path d="M1059.8,109.9h0c1.3-1.1,2.8-2.2,4.4-3.4h-4.5v3.4h0Z" class="st7"></path>
            </g>
            <path d="M1053.6,85.2l.7.6c-.3-1.1-.9-1.9-1.8-2.6-1.1-.8-2.3-1.1-3.6-.9-1.3.2-2.4.8-3.2,1.9-.4.5-.7,1.1-.8,1.8,1.1-1.2,2.5-1.9,4.2-2,1.7-.2,3.2.2,4.5,1.2h0Z" class="st3"></path>
            <path d="M1072.8,84.6l.7.6c-.3-1.1-.9-1.9-1.8-2.6-1.1-.8-2.3-1.1-3.6-.9-1.3.2-2.4.8-3.2,1.9-.4.5-.7,1.1-.8,1.8,1.1-1.2,2.5-1.9,4.2-2,1.7-.2,3.2.2,4.5,1.2h0Z" class="st2"></path>
            <path d="M1070.5,91.1c-.4-.5-.9-.8-1.6-.9-.6,0-1.2,0-1.7.5-.5.4-.8.9-.9,1.6,0,.6,0,1.2.5,1.7.4.5.9.8,1.6.9.6,0,1.2,0,1.7-.5.5-.4.8-.9.9-1.6,0-.6,0-1.2-.5-1.7h0Z" class="st7"></path>
            <path d="M1067.1,90.9v-.2c-.2.2-.3.3-.4.5h.4v-.3h0Z" class="st16"></path>
            <path d="M1052.3,91.6c-.4-.5-.9-.8-1.6-.9-.7,0-1.2,0-1.7.5-.5.4-.8.9-.9,1.6,0,.7,0,1.2.5,1.8.4.5.9.8,1.6.9.7,0,1.2,0,1.8-.5.5-.4.8-.9.9-1.6,0-.7,0-1.2-.5-1.7h-.1Z" class="st22"></path>
            <path d="M1049.2,91.3v-.2c-.2.2-.4.3-.5.4h.3l.2-.2h0Z" class="st16"></path>
          </g>
          <g id="glasses">
            <path d="M1049.3,85.7c-3.2-.3-6.4,0-9.6,0s-1.6,0-2.4.2l-4.5.6v.3l.2,2.7h0c.5.3.9.5,1.2.9.2.3.4.7.5,1.2.4,2.2.9,4,1.3,5.4.6,1.9,1.5,3.8,3.2,4.9,3,1.8,6.8,1.7,10.1.7,2.1-.6,3.9-1.6,5.2-3.3,1.4-1.9,2.3-3.9,2.9-6.1l.3-1.3c.2-.8.6-1.3,1.3-1.5h.3v-2.9h-.9c-1,0-1.7,0-2.3-.3-2.2-.8-4.4-1.4-6.8-1.7M1052.6,87.6c.7.3,1.2.6,1.7,1.1s.8,1.1.9,1.7c.2.7.2,1.4.2,2.2,0,1.2-.2,2.3-.7,3.5-.4,1.2-1.1,2.3-2,3.3-.6.7-1.4,1.2-2.3,1.6-1.2.5-2.3.8-3.4.9-.8.2-1.7.2-2.5.2-1.3,0-2.5-.3-3.5-.7-.7-.3-1.3-.8-1.9-1.5-1.2-1.4-1.9-3-2.3-4.8l-.3-2.2v-1.3c0-1.3.6-2.3,1.6-3,.7-.6,1.6-.9,2.6-1.2.8-.2,1.7-.3,2.7-.3l5.2-.2c1.6,0,2.9.2,4,.7M1036.5,88v.5h-2.3v-.6h2.3Z" class="st7"></path>
            <path d="M1085.9,88.3h0v-3.1c-3.5-.2-7-.5-10.6-.5s-6.1.3-9.1,1.1c-2,.6-3.8,1.8-5.9,1.9h-1.2v2.8h.7c.7.2,1.2.7,1.4,1.5l.3,1.2c.4,1.7,1.4,3.4,2.4,4.8,1.6,2.2,3.5,3.6,6.2,4.2,3.3.8,7.2.9,10-1.3,1.6-1.3,2.4-3.1,3-5,.4-1.4.8-3.3,1-5.4,0-.5.2-.9.4-1.2.3-.4.6-.7,1.1-.9M1082.4,87.3v-.5h2.3v.5h-2.3M1082.5,90.3c0,1.2,0,2.4-.2,3.6-.3,2.4-1.6,5.2-3.8,6.5-3,1.7-7.7,1.2-10.6-.5-1.5-.9-2.7-2.4-3.4-4-.8-1.8-1.1-3.7-.8-5.7.5-2.9,3.9-3.7,6.3-3.8l5.2-.2c1.8,0,3.8,0,5.4,1.2,1,.7,1.6,1.6,1.7,2.9h.2Z" class="st7"></path>
          </g>
        </g>
      </g>
    </g>
  </g>
</svg>